<svg width="29" height="29" viewBox="0 0 29 29" fill="none" xmlns="http://www.w3.org/2000/svg">
<path d="M14.5 22.0888C17.8785 22.0888 20.735 20.0448 21.9095 17.1888H7.0905C8.2505 20.0448 11.1215 22.0888 14.5 22.0888ZM9.425 12.9888C10.0018 12.9888 10.5551 12.7675 10.963 12.3737C11.3708 11.9799 11.6 11.4457 11.6 10.8888C11.6 10.3318 11.3708 9.7977 10.963 9.40387C10.5551 9.01004 10.0018 8.78879 9.425 8.78879C8.84815 8.78879 8.29493 9.01004 7.88704 9.40387C7.47915 9.7977 7.25 10.3318 7.25 10.8888C7.25 11.4457 7.47915 11.9799 7.88704 12.3737C8.29493 12.7675 8.84815 12.9888 9.425 12.9888ZM19.575 12.9888C20.1518 12.9888 20.7051 12.7675 21.113 12.3737C21.5208 11.9799 21.75 11.4457 21.75 10.8888C21.75 10.3318 21.5208 9.7977 21.113 9.40387C20.7051 9.01004 20.1518 8.78879 19.575 8.78879C18.9982 8.78879 18.4449 9.01004 18.037 9.40387C17.6292 9.7977 17.4 10.3318 17.4 10.8888C17.4 11.4457 17.6292 11.9799 18.037 12.3737C18.4449 12.7675 18.9982 12.9888 19.575 12.9888ZM14.5 25.5888C11.4235 25.5888 8.47298 24.4088 6.29756 22.3084C4.12214 20.208 2.9 17.3592 2.9 14.3888C2.9 11.4184 4.12214 8.56961 6.29756 6.4692C8.47298 4.36879 11.4235 3.18879 14.5 3.18879C17.5765 3.18879 20.527 4.36879 22.7024 6.4692C24.8779 8.56961 26.1 11.4184 26.1 14.3888C26.1 17.3592 24.8779 20.208 22.7024 22.3084C20.527 24.4088 17.5765 25.5888 14.5 25.5888ZM14.5 0.388794C6.4815 0.388794 0 6.68879 0 14.3888C0 18.1018 1.52767 21.6628 4.24695 24.2883C5.5934 25.5883 7.19187 26.6195 8.95109 27.3231C10.7103 28.0267 12.5958 28.3888 14.5 28.3888C18.3456 28.3888 22.0338 26.9138 24.753 24.2883C27.4723 21.6628 29 18.1018 29 14.3888C29 12.5503 28.6249 10.7298 27.8963 9.03123C27.1676 7.33267 26.0995 5.78932 24.753 4.4893C23.4066 3.18928 21.8081 2.15805 20.0489 1.45448C18.2897 0.750915 16.4042 0.388794 14.5 0.388794Z" fill="black"/>
</svg>
