<svg width="32" height="29" viewBox="0 0 32 29" fill="none" xmlns="http://www.w3.org/2000/svg">
<path d="M9.26171 11.3695C10.3611 11.2528 11.2114 11.4558 11.5154 11.6098C11.6501 11.684 11.7981 11.7297 11.9505 11.7444C12.1028 11.7591 12.2565 11.7424 12.4025 11.6953C12.5484 11.6482 12.6836 11.5716 12.8 11.4702C12.9164 11.3687 13.0116 11.2444 13.0801 11.1047C13.1485 10.9649 13.1888 10.8126 13.1985 10.6566C13.2081 10.5007 13.187 10.3444 13.1364 10.1969C13.0857 10.0495 13.0066 9.91392 12.9037 9.79829C12.8007 9.68266 12.6761 9.58932 12.5371 9.52379C11.7349 9.11313 10.416 8.90079 9.024 9.05013C6.82971 9.28346 4.57143 11.2295 4.57143 14.4098C4.57143 17.6415 6.98057 19.7765 9.82857 19.7765C11.1543 19.7765 12.3429 19.1418 13.0217 18.4861C13.6206 17.9075 13.7143 17.1398 13.7143 16.6591V14.4098C13.7143 14.1004 13.5939 13.8036 13.3796 13.5848C13.1652 13.366 12.8745 13.2431 12.5714 13.2431H10.7269C10.4238 13.2431 10.1331 13.366 9.91874 13.5848C9.70441 13.8036 9.584 14.1004 9.584 14.4098C9.584 14.7192 9.70441 15.016 9.91874 15.2348C10.1331 15.4535 10.4238 15.5765 10.7269 15.5765H11.4286V16.6591C11.4288 16.7147 11.4242 16.7701 11.4149 16.8248C10.9695 17.2075 10.4105 17.4254 9.82857 17.4431C8.15771 17.4431 6.85714 16.2648 6.85714 14.4098C6.85714 12.5011 8.15314 11.4885 9.26171 11.3695ZM18.2857 10.2121C18.2857 9.90271 18.1653 9.60596 17.951 9.38717C17.7367 9.16838 17.446 9.04546 17.1429 9.04546C16.8398 9.04546 16.5491 9.16838 16.3347 9.38717C16.1204 9.60596 16 9.90271 16 10.2121V18.6121C16 18.9215 16.1204 19.2183 16.3347 19.4371C16.5491 19.6559 16.8398 19.7788 17.1429 19.7788C17.446 19.7788 17.7367 19.6559 17.951 19.4371C18.1653 19.2183 18.2857 18.9215 18.2857 18.6121V10.2121ZM21.7143 9.04546C21.4112 9.04546 21.1205 9.16838 20.9062 9.38717C20.6918 9.60596 20.5714 9.90271 20.5714 10.2121V18.6121C20.5714 18.9215 20.6918 19.2183 20.9062 19.4371C21.1205 19.6559 21.4112 19.7788 21.7143 19.7788C22.0174 19.7788 22.3081 19.6559 22.5224 19.4371C22.7367 19.2183 22.8571 18.9215 22.8571 18.6121V15.5695L25.1497 15.5555C25.4528 15.5536 25.7428 15.4289 25.9558 15.2088C26.1689 14.9887 26.2875 14.6912 26.2857 14.3818C26.2839 14.0724 26.1617 13.7764 25.9461 13.5589C25.7305 13.3414 25.4391 13.2203 25.136 13.2221L22.8571 13.2361V11.3765H26.2857C26.5888 11.3765 26.8795 11.2535 27.0938 11.0348C27.3082 10.816 27.4286 10.5192 27.4286 10.2098C27.4286 9.90037 27.3082 9.60363 27.0938 9.38484C26.8795 9.16604 26.5888 9.04313 26.2857 9.04313L21.7143 9.04546ZM5.71429 0.388794C4.19876 0.388794 2.74531 1.00338 1.67368 2.09734C0.602039 3.1913 0 4.67503 0 6.22213V22.5555C0 24.1026 0.602039 25.5863 1.67368 26.6803C2.74531 27.7742 4.19876 28.3888 5.71429 28.3888H26.2857C27.8012 28.3888 29.2547 27.7742 30.3263 26.6803C31.398 25.5863 32 24.1026 32 22.5555V6.22213C32 4.67503 31.398 3.1913 30.3263 2.09734C29.2547 1.00338 27.8012 0.388794 26.2857 0.388794H5.71429ZM2.28571 6.22213C2.28571 5.29387 2.64694 4.40363 3.28992 3.74725C3.9329 3.09088 4.80497 2.72213 5.71429 2.72213H26.2857C27.195 2.72213 28.0671 3.09088 28.7101 3.74725C29.3531 4.40363 29.7143 5.29387 29.7143 6.22213V22.5555C29.7143 23.4837 29.3531 24.374 28.7101 25.0303C28.0671 25.6867 27.195 26.0555 26.2857 26.0555H5.71429C4.80497 26.0555 3.9329 25.6867 3.28992 25.0303C2.64694 24.374 2.28571 23.4837 2.28571 22.5555V6.22213Z" fill="black"/>
</svg>
