<svg width="33" height="28" viewBox="0 0 33 28" fill="none" xmlns="http://www.w3.org/2000/svg">
<path d="M30.7353 0.388794H2.26471C1.66407 0.388794 1.08803 0.620334 0.663317 1.03248C0.238602 1.44462 0 2.00361 0 2.58647V25.1911C0 25.774 0.238602 26.333 0.663317 26.7451C1.08803 27.1573 1.66407 27.3888 2.26471 27.3888H30.7353C31.3359 27.3888 31.912 27.1573 32.3367 26.7451C32.7614 26.333 33 25.774 33 25.1911V2.58647C33 2.00361 32.7614 1.44462 32.3367 1.03248C31.912 0.620334 31.3359 0.388794 30.7353 0.388794ZM2.26471 2.27251H30.7353C30.8211 2.27251 30.9034 2.30559 30.9641 2.36447C31.0247 2.42335 31.0588 2.5032 31.0588 2.58647V19.4725L26.2916 14.8464C26.0813 14.6423 25.8316 14.4804 25.5569 14.3699C25.2821 14.2594 24.9876 14.2026 24.6901 14.2026C24.3927 14.2026 24.0982 14.2594 23.8234 14.3699C23.5486 14.4804 23.299 14.6423 23.0887 14.8464L19.6237 18.2088L12.2779 11.0789C12.0676 10.8748 11.818 10.7129 11.5432 10.6025C11.2684 10.492 10.9739 10.4351 10.6765 10.4351C10.379 10.4351 10.0845 10.492 9.80975 10.6025C9.53497 10.7129 9.2853 10.8748 9.075 11.0789L1.94118 18.0016V2.58647C1.94118 2.5032 1.97526 2.42335 2.03594 2.36447C2.09661 2.30559 2.1789 2.27251 2.26471 2.27251ZM1.94118 25.1911V20.6655L10.4468 12.4116C10.4768 12.3822 10.5126 12.3589 10.552 12.3429C10.5915 12.327 10.6338 12.3188 10.6765 12.3188C10.7192 12.3188 10.7615 12.327 10.8009 12.3429C10.8403 12.3589 10.8761 12.3822 10.9062 12.4116L24.399 25.5051H2.26471C2.1789 25.5051 2.09661 25.472 2.03594 25.4131C1.97526 25.3542 1.94118 25.2744 1.94118 25.1911ZM30.7353 25.5051H27.1441L20.9971 19.54L24.4604 16.1775C24.4905 16.1483 24.5262 16.1252 24.5654 16.1094C24.6047 16.0936 24.6468 16.0854 24.6893 16.0854C24.7319 16.0854 24.774 16.0936 24.8132 16.1094C24.8525 16.1252 24.8882 16.1483 24.9182 16.1775L31.0653 22.1426V25.1911C31.0653 25.2329 31.0567 25.2742 31.0401 25.3127C31.0234 25.3512 30.999 25.3861 30.9683 25.4154C30.9375 25.4446 30.9011 25.4676 30.8611 25.483C30.8211 25.4984 30.7783 25.5059 30.7353 25.5051ZM19.4118 9.49345C19.4118 9.18297 19.5066 8.87948 19.6844 8.62133C19.8621 8.36318 20.1148 8.16198 20.4104 8.04317C20.706 7.92436 21.0312 7.89327 21.345 7.95384C21.6588 8.01441 21.947 8.16392 22.1733 8.38345C22.3995 8.60299 22.5536 8.88269 22.616 9.1872C22.6784 9.4917 22.6464 9.80733 22.5239 10.0942C22.4015 10.381 22.1942 10.6262 21.9281 10.7987C21.6621 10.9711 21.3494 11.0632 21.0294 11.0632C20.6004 11.0632 20.1889 10.8978 19.8856 10.6034C19.5822 10.309 19.4118 9.90977 19.4118 9.49345Z" fill="black"/>
</svg>
