<svg width="35" height="29" viewBox="0 0 35 29" fill="none" xmlns="http://www.w3.org/2000/svg">
<path d="M16.6543 4.86496L17.5 6.20494L18.3457 4.86496C19.8333 2.50773 22.4576 1 25.4545 1C30.1445 1 34 4.87569 34 9.625C34 11.7329 33.0367 13.933 31.4569 16.1052C29.8844 18.2673 27.7663 20.312 25.6136 22.088C23.4657 23.86 21.3129 25.3405 19.6943 26.3791C18.886 26.8977 18.2133 27.3047 17.7443 27.5811C17.6561 27.633 17.5752 27.6804 17.5019 27.7229C17.4283 27.6799 17.347 27.632 17.2585 27.5794C16.7892 27.3009 16.1164 26.8911 15.3079 26.3693C13.6891 25.3243 11.5358 23.8361 9.38743 22.0588C7.23421 20.2774 5.11552 18.2298 3.54264 16.0707C1.96186 13.9007 1 11.7112 1 9.625C1 4.87569 4.85555 1 9.54545 1C12.5424 1 15.1667 2.50773 16.6543 4.86496Z" stroke="black" stroke-width="2"/>
</svg>
