<svg width="24" height="32" viewBox="0 0 24 32" fill="none" xmlns="http://www.w3.org/2000/svg">
<path d="M11.8854 2C6.42783 2 2 6.1896 2 11.3497C2 17.287 8.59025 26.6961 11.0101 29.9459C11.1106 30.0831 11.2422 30.1947 11.3943 30.2717C11.5464 30.3487 11.7147 30.3888 11.8854 30.3888C12.0561 30.3888 12.2243 30.3487 12.3764 30.2717C12.5286 30.1947 12.6602 30.0831 12.7607 29.9459C15.1805 26.6974 21.7708 17.2918 21.7708 11.3497C21.7708 6.1896 17.3429 2 11.8854 2Z" stroke="black" stroke-width="3" stroke-linecap="round" stroke-linejoin="round"/>
<path d="M11.885 15.1805C13.7048 15.1805 15.1801 13.7052 15.1801 11.8854C15.1801 10.0655 13.7048 8.59026 11.885 8.59026C10.0651 8.59026 8.58984 10.0655 8.58984 11.8854C8.58984 13.7052 10.0651 15.1805 11.885 15.1805Z" stroke="black" stroke-width="3" stroke-linecap="round" stroke-linejoin="round"/>
</svg>
