<svg width="35" height="35" viewBox="0 0 35 35" fill="none" xmlns="http://www.w3.org/2000/svg">
<path d="M6.80556 21.5202H28.1944V19.4706H6.80556V21.5202ZM6.80556 15.3716H28.1944V13.322H6.80556V15.3716ZM6.80556 9.22293H28.1944V7.17339H6.80556V9.22293ZM35 35L29.0169 28.6936H3.14223C2.24649 28.6936 1.49852 28.3779 0.898337 27.7467C0.298152 27.1154 -0.00129211 26.3277 4.19062e-06 25.3836V3.31001C4.19062e-06 2.36722 0.300097 1.57952 0.900282 0.946892C1.50047 0.314267 2.24713 -0.00136194 3.14028 4.41712e-06H31.8597C32.7542 4.41712e-06 33.5008 0.315633 34.0997 0.946892C34.6986 1.57815 34.9987 2.36586 35 3.31001V35ZM3.14223 26.644H29.8472L33.0556 30.0135V3.31206C33.0556 2.99643 32.9311 2.70676 32.6822 2.44306C32.4333 2.17935 32.1592 2.04818 31.8597 2.04954H3.14028C2.84213 2.04954 2.56797 2.18071 2.31778 2.44306C2.0676 2.7054 1.94315 2.99438 1.94445 3.31001V25.3836C1.94445 25.6978 2.06889 25.9868 2.31778 26.2505C2.56667 26.5142 2.84084 26.6454 3.14028 26.644" fill="black"/>
</svg>
