<svg width="45" height="45" viewBox="0 0 45 45" fill="none" xmlns="http://www.w3.org/2000/svg">
<g clip-path="url(#clip0_43_970)">
<path d="M45 22.6382C45 10.1338 34.9256 -0.00241852 22.5 -0.00241852C10.0688 0.000393982 -0.00561523 10.1338 -0.00561523 22.641C-0.00561523 33.9388 8.22376 43.3045 18.9788 45.0032V29.1829H13.2694V22.641H18.9844V17.6488C18.9844 11.976 22.3453 8.84289 27.4838 8.84289C29.9475 8.84289 32.5209 9.28446 32.5209 9.28446V14.8532H29.6831C26.8903 14.8532 26.0184 16.5998 26.0184 18.3913V22.6382H32.2566L31.2609 29.1801H26.0156V45.0004C36.7706 43.3016 45 33.936 45 22.6382Z" fill="#059BE5"/>
</g>
<defs>
<clipPath id="clip0_43_970">
<rect width="45" height="45" rx="22.5" fill="white"/>
</clipPath>
</defs>
</svg>
