<svg width="45" height="45" viewBox="0 0 45 45" fill="none" xmlns="http://www.w3.org/2000/svg">
<g clip-path="url(#clip0_43_954)">
<path d="M46.6012 18.9212H44.7059V18.8235H23.5294V28.2353H36.8271C34.8871 33.7141 29.6741 37.6471 23.5294 37.6471C15.7329 37.6471 9.41176 31.3259 9.41176 23.5294C9.41176 15.7329 15.7329 9.41176 23.5294 9.41176C27.1282 9.41176 30.4024 10.7694 32.8953 12.9871L39.5506 6.33176C35.3482 2.41529 29.7271 0 23.5294 0C10.5353 0 0 10.5353 0 23.5294C0 36.5235 10.5353 47.0588 23.5294 47.0588C36.5235 47.0588 47.0588 36.5235 47.0588 23.5294C47.0588 21.9518 46.8965 20.4118 46.6012 18.9212Z" fill="#FFC107"/>
<path d="M2.71143 12.5776L10.442 18.2471C12.5338 13.0682 17.5997 9.41176 23.5279 9.41176C27.1267 9.41176 30.4008 10.7694 32.8938 12.9871L39.5491 6.33176C35.3467 2.41529 29.7255 0 23.5279 0C14.4902 0 6.6526 5.10235 2.71143 12.5776Z" fill="#FF3D00"/>
<path d="M23.5298 47.0596C29.6075 47.0596 35.1298 44.7338 39.3051 40.9514L32.0228 34.789C29.581 36.646 26.5974 37.6503 23.5298 37.6479C17.4098 37.6479 12.2133 33.7455 10.2557 28.2996L2.58276 34.2114C6.47688 41.8314 14.3851 47.0596 23.5298 47.0596Z" fill="#4CAF50"/>
<path d="M46.6012 18.9212H44.7059V18.8235H23.5294V28.2353H36.8271C35.8991 30.8428 34.2275 33.1214 32.0188 34.7894L32.0224 34.787L39.3047 40.9494C38.7894 41.4176 47.0588 35.2941 47.0588 23.5294C47.0588 21.9518 46.8965 20.4118 46.6012 18.9212Z" fill="#1976D2"/>
</g>
<defs>
<clipPath id="clip0_43_954">
<rect width="45" height="45" rx="22.5" fill="white"/>
</clipPath>
</defs>
</svg>
