<svg width="198" height="26" viewBox="0 0 198 26" fill="none" xmlns="http://www.w3.org/2000/svg">
<path d="M3.021 3.852C3.54033 3.738 4.05967 3.64933 4.579 3.586C5.09833 3.51 5.738 3.472 6.498 3.472C7.51133 3.472 8.37267 3.63033 9.082 3.947C9.804 4.26367 10.393 4.70067 10.849 5.258C11.305 5.80267 11.6407 6.42967 11.856 7.139C12.0713 7.83567 12.179 8.57033 12.179 9.343C12.179 10.863 11.875 12.2183 11.267 13.409C10.659 14.5997 9.79767 15.537 8.683 16.221C7.56833 16.8923 6.23833 17.228 4.693 17.228C3.88233 17.228 3.16033 17.171 2.527 17.057C1.89367 16.9557 1.31733 16.81 0.798 16.62L3.021 3.852ZM6.346 4.992C6.01667 4.992 5.70633 5.011 5.415 5.049C5.12367 5.07433 4.85133 5.11867 4.598 5.182L2.812 15.423C3.10333 15.499 3.41367 15.5623 3.743 15.613C4.07233 15.651 4.427 15.67 4.807 15.67C5.909 15.67 6.87167 15.4103 7.695 14.891C8.531 14.3717 9.177 13.6497 9.633 12.725C10.089 11.7877 10.317 10.711 10.317 9.495C10.317 8.697 10.1777 7.956 9.899 7.272C9.62033 6.588 9.18967 6.037 8.607 5.619C8.02433 5.201 7.27067 4.992 6.346 4.992ZM18.2846 5.429C17.93 5.429 17.6576 5.32767 17.4676 5.125C17.2903 4.90967 17.2016 4.66267 17.2016 4.384C17.2016 3.97867 17.3283 3.65567 17.5816 3.415C17.835 3.16167 18.1516 3.035 18.5316 3.035C18.8863 3.035 19.1523 3.14267 19.3296 3.358C19.5196 3.56067 19.6146 3.80133 19.6146 4.08C19.6146 4.47267 19.488 4.79567 19.2346 5.049C18.9813 5.30233 18.6646 5.429 18.2846 5.429ZM17.0116 17H15.3016L17.0306 7.12H18.7406L17.0116 17ZM29.079 9.267C28.7116 9.01367 28.3 8.792 27.844 8.602C27.4006 8.412 26.894 8.317 26.324 8.317C25.7286 8.317 25.2663 8.41833 24.937 8.621C24.6076 8.82367 24.443 9.08967 24.443 9.419C24.443 9.609 24.4936 9.79267 24.595 9.97C24.709 10.1347 24.9053 10.312 25.184 10.502C25.4753 10.692 25.8806 10.92 26.4 11.186C27.2613 11.6167 27.901 12.0663 28.319 12.535C28.737 12.991 28.946 13.5547 28.946 14.226C28.946 14.8973 28.7686 15.4547 28.414 15.898C28.0593 16.3413 27.5843 16.677 26.989 16.905C26.3936 17.1203 25.7223 17.228 24.975 17.228C24.2023 17.228 23.5183 17.133 22.923 16.943C22.3403 16.7403 21.8336 16.4807 21.403 16.164L22.372 14.758C22.714 15.0367 23.1193 15.271 23.588 15.461C24.0566 15.651 24.5696 15.746 25.127 15.746C25.7603 15.746 26.2606 15.6257 26.628 15.385C26.9953 15.1443 27.179 14.8467 27.179 14.492C27.179 14.1627 27.0396 13.8587 26.761 13.58C26.495 13.3013 25.9693 12.9657 25.184 12.573C24.5506 12.2563 24.0566 11.9523 23.702 11.661C23.3473 11.357 23.1003 11.034 22.961 10.692C22.8216 10.35 22.752 9.95733 22.752 9.514C22.752 9.00733 22.904 8.55767 23.208 8.165C23.512 7.77233 23.9363 7.462 24.481 7.234C25.0256 7.006 25.6526 6.892 26.362 6.892C27.0713 6.892 27.7046 6.987 28.262 7.177C28.832 7.35433 29.3323 7.56967 29.763 7.823L29.079 9.267ZM40.0913 9.115C39.7747 8.91233 39.4327 8.74767 39.0653 8.621C38.698 8.48167 38.2927 8.412 37.8493 8.412C37.1527 8.412 36.5383 8.59567 36.0063 8.963C35.487 9.33033 35.0817 9.83067 34.7903 10.464C34.499 11.0847 34.3533 11.7877 34.3533 12.573C34.3533 13.5357 34.594 14.302 35.0753 14.872C35.5693 15.4293 36.228 15.708 37.0513 15.708C37.5327 15.708 37.957 15.651 38.3243 15.537C38.6917 15.423 39.0273 15.29 39.3313 15.138L39.5403 16.639C39.2237 16.7783 38.8373 16.9113 38.3813 17.038C37.938 17.1647 37.3997 17.228 36.7663 17.228C35.943 17.228 35.2147 17.0443 34.5813 16.677C33.9607 16.3097 33.473 15.7967 33.1183 15.138C32.7763 14.4667 32.6053 13.6877 32.6053 12.801C32.6053 11.737 32.8207 10.7617 33.2513 9.875C33.6947 8.97567 34.3153 8.25367 35.1133 7.709C35.924 7.16433 36.8803 6.892 37.9823 6.892C38.5777 6.892 39.1033 6.968 39.5593 7.12C40.028 7.25933 40.4397 7.43667 40.7943 7.652L40.0913 9.115ZM47.6453 17.228C46.7079 17.228 45.8973 17.038 45.2133 16.658C44.5293 16.278 43.9973 15.7523 43.6173 15.081C43.2499 14.397 43.0663 13.6243 43.0663 12.763C43.0663 11.661 43.2879 10.6667 43.7313 9.78C44.1873 8.89333 44.8206 8.19033 45.6313 7.671C46.4419 7.15167 47.3983 6.892 48.5003 6.892C49.4376 6.892 50.2483 7.082 50.9323 7.462C51.6163 7.842 52.1419 8.36767 52.5093 9.039C52.8893 9.71033 53.0793 10.483 53.0793 11.357C53.0793 12.4463 52.8576 13.4407 52.4143 14.34C51.9709 15.2267 51.3376 15.9297 50.5143 16.449C49.7036 16.9683 48.7473 17.228 47.6453 17.228ZM47.7023 15.708C48.4623 15.708 49.1083 15.5243 49.6403 15.157C50.1849 14.777 50.6029 14.2703 50.8943 13.637C51.1856 13.0037 51.3313 12.2943 51.3313 11.509C51.3313 10.9263 51.2173 10.407 50.9893 9.951C50.7613 9.48233 50.4319 9.10867 50.0013 8.83C49.5706 8.55133 49.0513 8.412 48.4433 8.412C47.6959 8.412 47.0499 8.602 46.5053 8.982C45.9606 9.34933 45.5426 9.84967 45.2513 10.483C44.9599 11.1163 44.8143 11.8257 44.8143 12.611C44.8143 13.181 44.9283 13.7003 45.1563 14.169C45.3843 14.6377 45.7136 15.0113 46.1443 15.29C46.5749 15.5687 47.0943 15.708 47.7023 15.708ZM56.1991 7.348L57.8141 6.93L59.7711 15.1L64.5021 6.93L65.8891 7.747L60.3411 17H58.5741L56.1991 7.348ZM72.1221 17.228C71.2861 17.228 70.5451 17.0507 69.8991 16.696C69.2658 16.3287 68.7654 15.8093 68.3981 15.138C68.0434 14.454 67.8661 13.6497 67.8661 12.725C67.8661 11.6737 68.0814 10.7047 68.5121 9.818C68.9554 8.93133 69.5761 8.222 70.3741 7.69C71.1848 7.158 72.1284 6.892 73.2051 6.892C73.9398 6.892 74.5604 7.03133 75.0671 7.31C75.5864 7.58867 75.9854 7.94967 76.2641 8.393C76.5428 8.83633 76.6821 9.31133 76.6821 9.818C76.6821 10.5147 76.5174 11.091 76.1881 11.547C75.8588 12.003 75.4344 12.3577 74.9151 12.611C74.3958 12.8517 73.8321 13.0227 73.2241 13.124C72.6288 13.2253 72.0588 13.276 71.5141 13.276C71.1721 13.276 70.8301 13.2633 70.4881 13.238C70.1588 13.2 69.8674 13.162 69.6141 13.124C69.7154 13.96 70.0131 14.5997 70.5071 15.043C71.0011 15.4863 71.6344 15.708 72.4071 15.708C73.0404 15.708 73.6041 15.6257 74.0981 15.461C74.5921 15.2963 75.0101 15.1317 75.3521 14.967L75.5041 16.487C75.1241 16.6643 74.6428 16.8353 74.0601 17C73.4774 17.152 72.8314 17.228 72.1221 17.228ZM73.0721 8.336C72.4768 8.336 71.9384 8.488 71.4571 8.792C70.9758 9.08333 70.5768 9.48867 70.2601 10.008C69.9561 10.5147 69.7534 11.0973 69.6521 11.756C69.9434 11.8067 70.2348 11.851 70.5261 11.889C70.8301 11.9143 71.1594 11.927 71.5141 11.927C72.5781 11.927 73.4204 11.7813 74.0411 11.49C74.6618 11.186 74.9721 10.673 74.9721 9.951C74.9721 9.50767 74.7948 9.12767 74.4401 8.811C74.0981 8.49433 73.6421 8.336 73.0721 8.336ZM81.2391 9.894C81.2517 9.83067 81.2581 9.761 81.2581 9.685C81.2707 9.59633 81.2771 9.50767 81.2771 9.419C81.2771 9.06433 81.1757 8.81733 80.9731 8.678C80.7704 8.526 80.5044 8.45 80.1751 8.45L80.7641 7.12C81.4354 7.12 81.9484 7.28467 82.3031 7.614C82.6704 7.93067 82.8541 8.40567 82.8541 9.039V9.419C83.2214 8.51967 83.6901 7.87367 84.2601 7.481C84.8427 7.08833 85.5014 6.892 86.2361 6.892C86.5274 6.892 86.7744 6.91733 86.9771 6.968C87.1924 7.006 87.3697 7.05667 87.5091 7.12L86.7491 8.792C86.5971 8.72867 86.4387 8.68433 86.2741 8.659C86.1094 8.63367 85.9194 8.621 85.7041 8.621C85.2481 8.621 84.7921 8.78567 84.3361 9.115C83.8927 9.43167 83.4874 9.96367 83.1201 10.711C82.7654 11.4583 82.4741 12.4843 82.2461 13.789L81.6951 17H79.9851L81.2391 9.894ZM109.504 8.393C109.086 8.393 108.63 8.55133 108.136 8.868C107.642 9.18467 107.192 9.67867 106.787 10.35C106.381 11.0087 106.084 11.8637 105.894 12.915L105.172 17H103.462L104.545 11.091C104.608 10.787 104.646 10.5653 104.659 10.426C104.671 10.274 104.678 10.1347 104.678 10.008C104.678 9.514 104.532 9.12133 104.241 8.83C103.962 8.53867 103.595 8.393 103.139 8.393C102.695 8.393 102.227 8.55767 101.733 8.887C101.239 9.21633 100.789 9.72933 100.384 10.426C99.9782 11.11 99.6806 11.9903 99.4906 13.067L98.8066 17H97.0966L98.8256 7.12H100.479L100.061 9.4C100.441 8.64 100.954 8.032 101.6 7.576C102.258 7.12 102.936 6.892 103.633 6.892C104.418 6.892 105.051 7.13267 105.533 7.614C106.014 8.08267 106.286 8.678 106.35 9.4C106.78 8.61467 107.306 8.00033 107.927 7.557C108.56 7.11367 109.244 6.892 109.979 6.892C110.827 6.892 111.499 7.158 111.993 7.69C112.499 8.20933 112.753 8.849 112.753 9.609C112.753 9.92567 112.715 10.3247 112.639 10.806L111.537 17H109.827L110.91 11.091C110.973 10.787 111.011 10.5653 111.024 10.426C111.036 10.274 111.043 10.1347 111.043 10.008C111.043 9.514 110.897 9.12133 110.606 8.83C110.327 8.53867 109.96 8.393 109.504 8.393ZM121.024 17.228C120.087 17.228 119.276 17.038 118.592 16.658C117.908 16.278 117.376 15.7523 116.996 15.081C116.629 14.397 116.445 13.6243 116.445 12.763C116.445 11.661 116.667 10.6667 117.11 9.78C117.566 8.89333 118.2 8.19033 119.01 7.671C119.821 7.15167 120.777 6.892 121.879 6.892C122.817 6.892 123.627 7.082 124.311 7.462C124.995 7.842 125.521 8.36767 125.888 9.039C126.268 9.71033 126.458 10.483 126.458 11.357C126.458 12.4463 126.237 13.4407 125.793 14.34C125.35 15.2267 124.717 15.9297 123.893 16.449C123.083 16.9683 122.126 17.228 121.024 17.228ZM121.081 15.708C121.841 15.708 122.487 15.5243 123.019 15.157C123.564 14.777 123.982 14.2703 124.273 13.637C124.565 13.0037 124.71 12.2943 124.71 11.509C124.71 10.9263 124.596 10.407 124.368 9.951C124.14 9.48233 123.811 9.10867 123.38 8.83C122.95 8.55133 122.43 8.412 121.822 8.412C121.075 8.412 120.429 8.602 119.884 8.982C119.34 9.34933 118.922 9.84967 118.63 10.483C118.339 11.1163 118.193 11.8257 118.193 12.611C118.193 13.181 118.307 13.7003 118.535 14.169C118.763 14.6377 119.093 15.0113 119.523 15.29C119.954 15.5687 120.473 15.708 121.081 15.708ZM131.395 9.894C131.408 9.83067 131.414 9.761 131.414 9.685C131.427 9.59633 131.433 9.50767 131.433 9.419C131.433 9.06433 131.332 8.81733 131.129 8.678C130.927 8.526 130.661 8.45 130.331 8.45L130.92 7.12C131.592 7.12 132.105 7.28467 132.459 7.614C132.827 7.93067 133.01 8.40567 133.01 9.039V9.419C133.378 8.51967 133.846 7.87367 134.416 7.481C134.999 7.08833 135.658 6.892 136.392 6.892C136.684 6.892 136.931 6.91733 137.133 6.968C137.349 7.006 137.526 7.05667 137.665 7.12L136.905 8.792C136.753 8.72867 136.595 8.68433 136.43 8.659C136.266 8.63367 136.076 8.621 135.86 8.621C135.404 8.621 134.948 8.78567 134.492 9.115C134.049 9.43167 133.644 9.96367 133.276 10.711C132.922 11.4583 132.63 12.4843 132.402 13.789L131.851 17H130.141L131.395 9.894ZM143.627 17.228C142.791 17.228 142.05 17.0507 141.404 16.696C140.771 16.3287 140.27 15.8093 139.903 15.138C139.548 14.454 139.371 13.6497 139.371 12.725C139.371 11.6737 139.586 10.7047 140.017 9.818C140.46 8.93133 141.081 8.222 141.879 7.69C142.69 7.158 143.633 6.892 144.71 6.892C145.445 6.892 146.065 7.03133 146.572 7.31C147.091 7.58867 147.49 7.94967 147.769 8.393C148.048 8.83633 148.187 9.31133 148.187 9.818C148.187 10.5147 148.022 11.091 147.693 11.547C147.364 12.003 146.939 12.3577 146.42 12.611C145.901 12.8517 145.337 13.0227 144.729 13.124C144.134 13.2253 143.564 13.276 143.019 13.276C142.677 13.276 142.335 13.2633 141.993 13.238C141.664 13.2 141.372 13.162 141.119 13.124C141.22 13.96 141.518 14.5997 142.012 15.043C142.506 15.4863 143.139 15.708 143.912 15.708C144.545 15.708 145.109 15.6257 145.603 15.461C146.097 15.2963 146.515 15.1317 146.857 14.967L147.009 16.487C146.629 16.6643 146.148 16.8353 145.565 17C144.982 17.152 144.336 17.228 143.627 17.228ZM144.577 8.336C143.982 8.336 143.443 8.488 142.962 8.792C142.481 9.08333 142.082 9.48867 141.765 10.008C141.461 10.5147 141.258 11.0973 141.157 11.756C141.448 11.8067 141.74 11.851 142.031 11.889C142.335 11.9143 142.664 11.927 143.019 11.927C144.083 11.927 144.925 11.7813 145.546 11.49C146.167 11.186 146.477 10.673 146.477 9.951C146.477 9.50767 146.3 9.12767 145.945 8.811C145.603 8.49433 145.147 8.336 144.577 8.336Z" fill="black"/>
<line x1="4.37114e-08" y1="25.5" x2="148" y2="25.5" stroke="black"/>
</svg>
