<svg width="238" height="22" viewBox="0 0 238 22" fill="none" xmlns="http://www.w3.org/2000/svg">
<path d="M93.2858 3.7H101.171L100.905 5.258H94.8058L94.1028 9.305H99.3278L99.0618 10.825H93.8368L93.0198 15.442H99.0998L98.8338 17H90.9488L93.2858 3.7ZM103.573 11.889L100.685 8.013L102.167 6.911L104.675 10.825L108.133 7.025L109.311 8.127L105.53 11.984L108.57 16.126L107.145 17.171L104.447 13.067L100.628 17.114L99.5066 16.031L103.573 11.889ZM110.499 7.12C111.816 7.12 112.475 7.69 112.475 8.83V9.229C112.842 8.545 113.317 7.98767 113.9 7.557C114.483 7.11367 115.16 6.892 115.933 6.892C116.617 6.892 117.212 7.06933 117.719 7.424C118.226 7.766 118.612 8.24733 118.878 8.868C119.157 9.476 119.296 10.1853 119.296 10.996C119.296 11.9333 119.157 12.7883 118.878 13.561C118.612 14.321 118.245 14.9797 117.776 15.537C117.307 16.0817 116.782 16.4997 116.199 16.791C115.616 17.0823 115.015 17.228 114.394 17.228C113.786 17.228 113.216 17.076 112.684 16.772C112.165 16.468 111.759 16.0943 111.468 15.651L110.499 21.18H108.789L110.765 9.875C110.803 9.65967 110.822 9.48233 110.822 9.343C110.822 8.74767 110.512 8.45 109.891 8.45L110.499 7.12ZM114.242 15.708C114.837 15.708 115.382 15.518 115.876 15.138C116.383 14.7453 116.788 14.207 117.092 13.523C117.396 12.839 117.548 12.0537 117.548 11.167C117.548 10.3057 117.352 9.628 116.959 9.134C116.566 8.62733 116.053 8.374 115.42 8.374C114.913 8.374 114.426 8.53233 113.957 8.849C113.501 9.16567 113.108 9.609 112.779 10.179C112.45 10.749 112.215 11.4203 112.076 12.193L111.734 14.112C112.013 14.6187 112.374 15.0113 112.817 15.29C113.26 15.5687 113.735 15.708 114.242 15.708ZM122.26 13.58C122.234 13.7447 122.215 13.8967 122.203 14.036C122.19 14.1627 122.184 14.2767 122.184 14.378C122.184 14.8087 122.31 15.1443 122.564 15.385C122.83 15.6257 123.178 15.746 123.609 15.746C123.824 15.746 124.039 15.7207 124.255 15.67C124.47 15.6193 124.666 15.5497 124.844 15.461L125.015 16.848C124.787 16.962 124.521 17.0507 124.217 17.114C123.913 17.19 123.583 17.228 123.229 17.228C122.469 17.228 121.816 17.0127 121.272 16.582C120.74 16.1387 120.474 15.4737 120.474 14.587C120.474 14.2577 120.499 13.9347 120.55 13.618L122.412 2.94H124.122L122.26 13.58ZM129.827 17.228C128.889 17.228 128.079 17.038 127.395 16.658C126.711 16.278 126.179 15.7523 125.799 15.081C125.431 14.397 125.248 13.6243 125.248 12.763C125.248 11.661 125.469 10.6667 125.913 9.78C126.369 8.89333 127.002 8.19033 127.813 7.671C128.623 7.15167 129.58 6.892 130.682 6.892C131.619 6.892 132.43 7.082 133.114 7.462C133.798 7.842 134.323 8.36767 134.691 9.039C135.071 9.71033 135.261 10.483 135.261 11.357C135.261 12.4463 135.039 13.4407 134.596 14.34C134.152 15.2267 133.519 15.9297 132.696 16.449C131.885 16.9683 130.929 17.228 129.827 17.228ZM129.884 15.708C130.644 15.708 131.29 15.5243 131.822 15.157C132.366 14.777 132.784 14.2703 133.076 13.637C133.367 13.0037 133.513 12.2943 133.513 11.509C133.513 10.9263 133.399 10.407 133.171 9.951C132.943 9.48233 132.613 9.10867 132.183 8.83C131.752 8.55133 131.233 8.412 130.625 8.412C129.877 8.412 129.231 8.602 128.687 8.982C128.142 9.34933 127.724 9.84967 127.433 10.483C127.141 11.1163 126.996 11.8257 126.996 12.611C126.996 13.181 127.11 13.7003 127.338 14.169C127.566 14.6377 127.895 15.0113 128.326 15.29C128.756 15.5687 129.276 15.708 129.884 15.708ZM137.598 9.894C137.611 9.83067 137.617 9.761 137.617 9.685C137.63 9.59633 137.636 9.50767 137.636 9.419C137.636 9.06433 137.535 8.81733 137.332 8.678C137.129 8.526 136.863 8.45 136.534 8.45L137.123 7.12C137.794 7.12 138.307 7.28467 138.662 7.614C139.029 7.93067 139.213 8.40567 139.213 9.039V9.419C139.58 8.51967 140.049 7.87367 140.619 7.481C141.202 7.08833 141.86 6.892 142.595 6.892C142.886 6.892 143.133 6.91733 143.336 6.968C143.551 7.006 143.729 7.05667 143.868 7.12L143.108 8.792C142.956 8.72867 142.798 8.68433 142.633 8.659C142.468 8.63367 142.278 8.621 142.063 8.621C141.607 8.621 141.151 8.78567 140.695 9.115C140.252 9.43167 139.846 9.96367 139.479 10.711C139.124 11.4583 138.833 12.4843 138.605 13.789L138.054 17H136.344L137.598 9.894ZM147.23 17.228C146.394 17.228 145.653 17.0507 145.007 16.696C144.373 16.3287 143.873 15.8093 143.506 15.138C143.151 14.454 142.974 13.6497 142.974 12.725C142.974 11.6737 143.189 10.7047 143.62 9.818C144.063 8.93133 144.684 8.222 145.482 7.69C146.292 7.158 147.236 6.892 148.313 6.892C149.047 6.892 149.668 7.03133 150.175 7.31C150.694 7.58867 151.093 7.94967 151.372 8.393C151.65 8.83633 151.79 9.31133 151.79 9.818C151.79 10.5147 151.625 11.091 151.296 11.547C150.966 12.003 150.542 12.3577 150.023 12.611C149.503 12.8517 148.94 13.0227 148.332 13.124C147.736 13.2253 147.166 13.276 146.622 13.276C146.28 13.276 145.938 13.2633 145.596 13.238C145.266 13.2 144.975 13.162 144.722 13.124C144.823 13.96 145.121 14.5997 145.615 15.043C146.109 15.4863 146.742 15.708 147.515 15.708C148.148 15.708 148.712 15.6257 149.206 15.461C149.7 15.2963 150.118 15.1317 150.46 14.967L150.612 16.487C150.232 16.6643 149.75 16.8353 149.168 17C148.585 17.152 147.939 17.228 147.23 17.228ZM148.18 8.336C147.584 8.336 147.046 8.488 146.565 8.792C146.083 9.08333 145.684 9.48867 145.368 10.008C145.064 10.5147 144.861 11.0973 144.76 11.756C145.051 11.8067 145.342 11.851 145.634 11.889C145.938 11.9143 146.267 11.927 146.622 11.927C147.686 11.927 148.528 11.7813 149.149 11.49C149.769 11.186 150.08 10.673 150.08 9.951C150.08 9.50767 149.902 9.12767 149.548 8.811C149.206 8.49433 148.75 8.336 148.18 8.336ZM161.883 17.228C160.945 17.228 160.135 17.038 159.451 16.658C158.767 16.278 158.235 15.7523 157.855 15.081C157.487 14.397 157.304 13.6243 157.304 12.763C157.304 11.661 157.525 10.6667 157.969 9.78C158.425 8.89333 159.058 8.19033 159.869 7.671C160.679 7.15167 161.636 6.892 162.738 6.892C163.675 6.892 164.486 7.082 165.17 7.462C165.854 7.842 166.379 8.36767 166.747 9.039C167.127 9.71033 167.317 10.483 167.317 11.357C167.317 12.4463 167.095 13.4407 166.652 14.34C166.208 15.2267 165.575 15.9297 164.752 16.449C163.941 16.9683 162.985 17.228 161.883 17.228ZM161.94 15.708C162.7 15.708 163.346 15.5243 163.878 15.157C164.422 14.777 164.84 14.2703 165.132 13.637C165.423 13.0037 165.569 12.2943 165.569 11.509C165.569 10.9263 165.455 10.407 165.227 9.951C164.999 9.48233 164.669 9.10867 164.239 8.83C163.808 8.55133 163.289 8.412 162.681 8.412C161.933 8.412 161.287 8.602 160.743 8.982C160.198 9.34933 159.78 9.84967 159.489 10.483C159.197 11.1163 159.052 11.8257 159.052 12.611C159.052 13.181 159.166 13.7003 159.394 14.169C159.622 14.6377 159.951 15.0113 160.382 15.29C160.812 15.5687 161.332 15.708 161.94 15.708ZM171.098 17.228C170.591 17.228 170.123 17.114 169.692 16.886C169.274 16.658 168.938 16.3413 168.685 15.936C168.432 15.518 168.305 15.024 168.305 14.454C168.305 14.2893 168.311 14.1247 168.324 13.96C168.337 13.7827 168.356 13.599 168.381 13.409L169.464 7.12H171.174L170.072 13.371C170.059 13.4977 170.047 13.6117 170.034 13.713C170.021 13.8017 170.015 13.903 170.015 14.017C170.015 14.587 170.18 15.0113 170.509 15.29C170.838 15.5687 171.225 15.708 171.668 15.708C172.149 15.708 172.618 15.5623 173.074 15.271C173.543 14.967 173.954 14.5363 174.309 13.979C174.664 13.4217 174.911 12.7503 175.05 11.965L175.905 7.12H177.615L176.361 14.321C176.348 14.3843 176.336 14.4603 176.323 14.549C176.323 14.625 176.323 14.7073 176.323 14.796C176.323 15.1507 176.424 15.404 176.627 15.556C176.83 15.6953 177.096 15.765 177.425 15.765L176.836 17.095C176.152 17.095 175.626 16.9303 175.259 16.601C174.904 16.259 174.727 15.7333 174.727 15.024V14.853C173.802 16.4363 172.593 17.228 171.098 17.228ZM180.057 9.894C180.07 9.83067 180.076 9.761 180.076 9.685C180.089 9.59633 180.095 9.50767 180.095 9.419C180.095 9.06433 179.994 8.81733 179.791 8.678C179.588 8.526 179.322 8.45 178.993 8.45L179.582 7.12C180.253 7.12 180.766 7.28467 181.121 7.614C181.488 7.93067 181.672 8.40567 181.672 9.039V9.419C182.039 8.51967 182.508 7.87367 183.078 7.481C183.661 7.08833 184.319 6.892 185.054 6.892C185.345 6.892 185.592 6.91733 185.795 6.968C186.01 7.006 186.188 7.05667 186.327 7.12L185.567 8.792C185.415 8.72867 185.257 8.68433 185.092 8.659C184.927 8.63367 184.737 8.621 184.522 8.621C184.066 8.621 183.61 8.78567 183.154 9.115C182.711 9.43167 182.305 9.96367 181.938 10.711C181.583 11.4583 181.292 12.4843 181.064 13.789L180.513 17H178.803L180.057 9.894ZM192.785 13.58C192.76 13.7447 192.741 13.8967 192.728 14.036C192.716 14.1627 192.709 14.2767 192.709 14.378C192.709 14.8087 192.836 15.1443 193.089 15.385C193.355 15.6257 193.704 15.746 194.134 15.746C194.35 15.746 194.565 15.7207 194.78 15.67C194.996 15.6193 195.192 15.5497 195.369 15.461L195.54 16.848C195.312 16.962 195.046 17.0507 194.742 17.114C194.438 17.19 194.109 17.228 193.754 17.228C192.994 17.228 192.342 17.0127 191.797 16.582C191.265 16.1387 190.999 15.4737 190.999 14.587C190.999 14.2577 191.025 13.9347 191.075 13.618L192.937 2.94H194.647L192.785 13.58ZM195.774 13.105C195.774 11.8763 196.04 10.7997 196.572 9.875C197.116 8.93767 197.864 8.20933 198.814 7.69C199.764 7.158 200.847 6.892 202.063 6.892C202.81 6.892 203.462 6.968 204.02 7.12C204.59 7.272 205.058 7.424 205.426 7.576L204.229 14.321C204.216 14.3843 204.203 14.4603 204.191 14.549C204.191 14.625 204.191 14.7073 204.191 14.796C204.191 15.1507 204.292 15.404 204.495 15.556C204.697 15.6953 204.963 15.765 205.293 15.765L204.704 17.095C204.02 17.095 203.494 16.9303 203.127 16.601C202.772 16.259 202.595 15.7333 202.595 15.024C202.24 15.632 201.79 16.1513 201.246 16.582C200.714 17.0127 200.087 17.228 199.365 17.228C198.744 17.228 198.161 17.0633 197.617 16.734C197.072 16.392 196.629 15.917 196.287 15.309C195.945 14.6883 195.774 13.9537 195.774 13.105ZM203.545 8.583C203.304 8.507 203.051 8.45 202.785 8.412C202.531 8.36133 202.221 8.336 201.854 8.336C200.98 8.336 200.22 8.53233 199.574 8.925C198.928 9.31767 198.421 9.86233 198.054 10.559C197.699 11.243 197.522 12.022 197.522 12.896C197.522 13.504 197.629 14.017 197.845 14.435C198.073 14.853 198.364 15.1697 198.719 15.385C199.073 15.6003 199.441 15.708 199.821 15.708C200.34 15.708 200.815 15.5307 201.246 15.176C201.676 14.8213 202.044 14.3273 202.348 13.694C202.664 13.0607 202.892 12.3387 203.032 11.528L203.545 8.583ZM206.76 7.481H208.508L209.42 4.365H210.731L210.18 7.481H212.916L212.669 8.963H209.914L209.116 13.58C209.09 13.7193 209.071 13.8523 209.059 13.979C209.046 14.093 209.04 14.2007 209.04 14.302C209.04 14.7453 209.173 15.0937 209.439 15.347C209.705 15.5877 210.053 15.708 210.484 15.708C210.851 15.708 211.161 15.6573 211.415 15.556C211.668 15.442 211.896 15.328 212.099 15.214L212.308 16.696C212.067 16.8353 211.763 16.9557 211.396 17.057C211.041 17.171 210.642 17.228 210.199 17.228C209.73 17.228 209.274 17.133 208.831 16.943C208.4 16.753 208.045 16.4553 207.767 16.05C207.488 15.632 207.349 15.0937 207.349 14.435C207.349 14.1563 207.374 13.846 207.425 13.504L208.204 8.963H206.513L206.76 7.481ZM217.31 17.228C216.474 17.228 215.733 17.0507 215.087 16.696C214.454 16.3287 213.953 15.8093 213.586 15.138C213.231 14.454 213.054 13.6497 213.054 12.725C213.054 11.6737 213.269 10.7047 213.7 9.818C214.143 8.93133 214.764 8.222 215.562 7.69C216.373 7.158 217.316 6.892 218.393 6.892C219.128 6.892 219.748 7.03133 220.255 7.31C220.774 7.58867 221.173 7.94967 221.452 8.393C221.731 8.83633 221.87 9.31133 221.87 9.818C221.87 10.5147 221.705 11.091 221.376 11.547C221.047 12.003 220.622 12.3577 220.103 12.611C219.584 12.8517 219.02 13.0227 218.412 13.124C217.817 13.2253 217.247 13.276 216.702 13.276C216.36 13.276 216.018 13.2633 215.676 13.238C215.347 13.2 215.055 13.162 214.802 13.124C214.903 13.96 215.201 14.5997 215.695 15.043C216.189 15.4863 216.822 15.708 217.595 15.708C218.228 15.708 218.792 15.6257 219.286 15.461C219.78 15.2963 220.198 15.1317 220.54 14.967L220.692 16.487C220.312 16.6643 219.831 16.8353 219.248 17C218.665 17.152 218.019 17.228 217.31 17.228ZM218.26 8.336C217.665 8.336 217.126 8.488 216.645 8.792C216.164 9.08333 215.765 9.48867 215.448 10.008C215.144 10.5147 214.941 11.0973 214.84 11.756C215.131 11.8067 215.423 11.851 215.714 11.889C216.018 11.9143 216.347 11.927 216.702 11.927C217.766 11.927 218.608 11.7813 219.229 11.49C219.85 11.186 220.16 10.673 220.16 9.951C220.16 9.50767 219.983 9.12767 219.628 8.811C219.286 8.49433 218.83 8.336 218.26 8.336ZM229.204 9.267C228.837 9.01367 228.425 8.792 227.969 8.602C227.526 8.412 227.019 8.317 226.449 8.317C225.854 8.317 225.391 8.41833 225.062 8.621C224.733 8.82367 224.568 9.08967 224.568 9.419C224.568 9.609 224.619 9.79267 224.72 9.97C224.834 10.1347 225.03 10.312 225.309 10.502C225.6 10.692 226.006 10.92 226.525 11.186C227.386 11.6167 228.026 12.0663 228.444 12.535C228.862 12.991 229.071 13.5547 229.071 14.226C229.071 14.8973 228.894 15.4547 228.539 15.898C228.184 16.3413 227.709 16.677 227.114 16.905C226.519 17.1203 225.847 17.228 225.1 17.228C224.327 17.228 223.643 17.133 223.048 16.943C222.465 16.7403 221.959 16.4807 221.528 16.164L222.497 14.758C222.839 15.0367 223.244 15.271 223.713 15.461C224.182 15.651 224.695 15.746 225.252 15.746C225.885 15.746 226.386 15.6257 226.753 15.385C227.12 15.1443 227.304 14.8467 227.304 14.492C227.304 14.1627 227.165 13.8587 226.886 13.58C226.62 13.3013 226.094 12.9657 225.309 12.573C224.676 12.2563 224.182 11.9523 223.827 11.661C223.472 11.357 223.225 11.034 223.086 10.692C222.947 10.35 222.877 9.95733 222.877 9.514C222.877 9.00733 223.029 8.55767 223.333 8.165C223.637 7.77233 224.061 7.462 224.606 7.234C225.151 7.006 225.778 6.892 226.487 6.892C227.196 6.892 227.83 6.987 228.387 7.177C228.957 7.35433 229.457 7.56967 229.888 7.823L229.204 9.267ZM230.472 7.481H232.22L233.132 4.365H234.443L233.892 7.481H236.628L236.381 8.963H233.626L232.828 13.58C232.803 13.7193 232.784 13.8523 232.771 13.979C232.759 14.093 232.752 14.2007 232.752 14.302C232.752 14.7453 232.885 15.0937 233.151 15.347C233.417 15.5877 233.766 15.708 234.196 15.708C234.564 15.708 234.874 15.6573 235.127 15.556C235.381 15.442 235.609 15.328 235.811 15.214L236.02 16.696C235.78 16.8353 235.476 16.9557 235.108 17.057C234.754 17.171 234.355 17.228 233.911 17.228C233.443 17.228 232.987 17.133 232.543 16.943C232.113 16.753 231.758 16.4553 231.479 16.05C231.201 15.632 231.061 15.0937 231.061 14.435C231.061 14.1563 231.087 13.846 231.137 13.504L231.916 8.963H230.225L230.472 7.481Z" fill="#C6A969"/>
<line x1="4.37114e-08" y1="10.5" x2="79" y2="10.5" stroke="#C6A969"/>
</svg>
