<svg width="279" height="90" viewBox="0 0 279 90" fill="none" xmlns="http://www.w3.org/2000/svg">
<path d="M9.47685 9.33584V24.5632H27.4962C28.3486 24.5632 28.9561 24.4264 29.3089 24.1422C29.6616 23.8581 29.936 23.3004 30.1123 22.4795H31.0922V30.9088H30.1123C29.936 30.0774 29.6616 29.5302 29.3089 29.2461C28.9561 28.9619 28.3486 28.8146 27.4962 28.8146H9.47685V45.8414C9.47685 46.757 9.60423 47.4094 9.85899 47.7777C10.1137 48.146 10.6331 48.4407 11.4267 48.6617V49.7035H2.75513V48.6617C3.5292 48.4407 4.03872 48.146 4.30328 47.7777C4.56784 47.4094 4.70502 46.757 4.70502 45.8414V8.94648C4.70502 8.03094 4.56784 7.3785 4.30328 6.99966C4.03872 6.62081 3.5292 6.32616 2.75513 6.13674V5.0844H36.5401C37.3926 5.0844 37.9903 4.9476 38.343 4.66347C38.7056 4.37933 38.9701 3.81107 39.1563 2.95868H40.1263V11.3984H39.1563C38.9701 10.5671 38.7056 10.0199 38.343 9.74625C37.9903 9.47265 37.3926 9.33584 36.5401 9.33584H9.47685Z" fill="#1C2120" fill-opacity="0.4"/>
<path d="M53.9087 45.4521H80.4527C81.3052 45.4521 81.9029 45.3153 82.2654 45.0312C82.6181 44.7471 82.8827 44.1893 83.0689 43.358H84.0389V51.7977H83.0689C82.8827 50.9664 82.6181 50.4086 82.2654 50.1245C81.9029 49.8404 81.3052 49.7036 80.4527 49.7036H47.187V48.6618C47.9807 48.4408 48.5 48.1461 48.7548 47.7778C49.0095 47.4095 49.1369 46.757 49.1369 45.8415V8.94655C49.1369 8.03102 48.9997 7.38909 48.7352 7.01025C48.4706 6.64193 47.9611 6.34728 47.187 6.13681V5.08447H55.8586V6.13681C55.0845 6.34728 54.575 6.64193 54.3105 7.01025C54.0459 7.38909 53.9087 8.03102 53.9087 8.94655V45.4521Z" fill="#1C2120" fill-opacity="0.4"/>
<path d="M113.2 4.30566C120.52 4.30566 126.428 6.35772 130.906 10.4829C133.424 12.7665 135.315 15.5657 136.569 18.8805C137.608 21.6061 138.127 24.5316 138.127 27.6675C138.127 31.919 137.001 35.8968 134.747 39.6011C132.268 43.7052 128.829 46.6517 124.429 48.4617C121.137 49.8087 117.413 50.4927 113.259 50.4927C105.969 50.4927 100.1 48.4302 95.6316 44.305C93.1428 42.0004 91.2517 39.2012 89.9779 35.9074C88.9392 33.2028 88.4199 30.3615 88.4199 27.3834C88.4199 22.9531 89.5369 18.8805 91.771 15.1553C94.201 11.1248 97.65 8.17827 102.118 6.32615C105.244 5.0423 108.938 4.3688 113.2 4.30566ZM113.2 8.7781C106.968 8.7781 102.04 10.6513 98.4045 14.3976C95.0829 17.8492 93.4171 22.1743 93.4171 27.3834C93.4171 32.6135 95.0829 36.9492 98.4045 40.3903C102.02 44.1366 106.968 46.0098 113.259 46.0098C119.569 46.0098 124.537 44.1366 128.172 40.3903C131.474 36.9492 133.13 32.6977 133.13 27.636C133.13 22.1743 131.474 17.7545 128.172 14.3976C126.183 12.3981 124.047 10.988 121.784 10.1882C119.265 9.2727 116.404 8.79914 113.2 8.7781Z" fill="#1C2120" fill-opacity="0.4"/>
<path d="M152.115 8.94655V33.6239C152.115 36.5388 152.262 38.5909 152.546 39.78C152.83 40.9692 153.418 42.0005 154.31 42.8739C156.485 44.9681 160.532 46.0099 166.45 46.0099C172.907 46.0099 177.14 44.7786 179.149 42.3162C179.815 41.4848 180.266 40.5061 180.481 39.3591C180.707 38.212 180.824 36.3073 180.824 33.6239V8.94655C180.824 8.05206 180.687 7.41014 180.423 7.0313C180.158 6.65246 179.639 6.34728 178.875 6.13681V5.08447H187.115V6.13681C186.351 6.32623 185.831 6.62088 185.567 6.99973C185.302 7.37857 185.175 8.03102 185.175 8.94655V34.6341C185.175 37.7911 184.891 40.201 184.322 41.8637C183.264 44.8207 181.285 46.9991 178.365 48.3987C175.455 49.7878 171.428 50.4928 166.274 50.4928C158.562 50.4928 153.291 48.8827 150.449 45.6836C149.293 44.3998 148.48 42.937 148.029 41.2849C147.569 39.6432 147.343 37.4228 147.343 34.6341V8.94655C147.343 8.03102 147.206 7.37857 146.941 6.99973C146.687 6.62088 146.167 6.32623 145.393 6.13681V5.08447H154.065V6.13681C153.301 6.34728 152.781 6.65246 152.517 7.0313C152.252 7.41014 152.115 8.05206 152.115 8.94655Z" fill="#1C2120" fill-opacity="0.4"/>
<path d="M234.414 7.83099L230.064 16.2602L229.211 15.7761C229.554 14.7975 229.721 14.1871 229.721 13.9451C229.721 13.2926 228.976 12.5876 227.477 11.8194C223.391 9.76729 219.07 8.74653 214.504 8.74653C210.751 8.74653 207.488 9.50421 204.705 10.9985C203.373 11.7457 202.305 12.7033 201.531 13.8819C200.747 15.0606 200.355 16.3023 200.355 17.6072C200.355 18.6911 200.659 19.7224 201.266 20.6906C201.874 21.6587 202.677 22.3848 203.677 22.8689C204.764 23.4161 206.058 23.7844 207.557 23.9949C209.046 24.2054 211.476 24.3632 214.847 24.4684C219.511 24.6263 222.842 24.8578 224.861 25.1735C226.87 25.4892 228.516 26.0364 229.819 26.8257C233.268 28.8883 234.992 32.0453 234.992 36.2651C234.992 40.2956 233.425 43.5999 230.299 46.1782C226.83 49.051 222.058 50.4927 215.974 50.4927C212.456 50.4927 209.399 50.1034 206.773 49.3457C204.157 48.5775 201.031 47.1779 197.406 45.1258C196.387 44.6312 195.789 44.3787 195.613 44.3787C195.299 44.3787 194.829 44.768 194.182 45.5573L193.359 44.9995L197.925 36.7913L198.777 37.3175C198.385 38.1909 198.199 38.7802 198.199 39.0854C198.199 39.7799 199.493 40.8533 202.089 42.3161C204.421 43.621 206.675 44.5681 208.831 45.1469C210.996 45.7257 213.338 46.0098 215.876 46.0098C221.01 46.0098 224.91 44.7996 227.565 42.3792C229.329 40.7691 230.211 38.8539 230.211 36.6335C230.211 33.708 228.702 31.698 225.674 30.5825C224.704 30.2142 223.695 29.9722 222.646 29.8775C221.608 29.7827 218.639 29.6354 213.749 29.4355C210.261 29.2882 207.527 29.004 205.548 28.5831C203.569 28.1727 201.805 27.4992 200.267 26.5626C198.826 25.6892 197.68 24.4684 196.837 22.9005C195.995 21.3325 195.573 19.6172 195.573 17.7651C195.573 14.608 196.671 11.893 198.866 9.63049C200.492 7.97832 202.726 6.67342 205.587 5.72632C208.448 4.77922 211.584 4.30566 214.994 4.30566C217.777 4.30566 220.354 4.60032 222.744 5.18963C225.125 5.76841 227.82 6.78918 230.818 8.22036C231.494 8.52554 231.906 8.68339 232.072 8.68339C232.435 8.68339 232.935 8.2414 233.562 7.37849L234.414 7.83099Z" fill="#1C2120" fill-opacity="0.4"/>
<path d="M248.772 28.8777V45.4521H275.404C276.256 45.4521 276.864 45.3153 277.217 45.0311C277.569 44.747 277.844 44.1893 278.02 43.3579H279V51.7976H278.049C277.854 50.9663 277.569 50.4086 277.217 50.1244C276.864 49.8403 276.256 49.7035 275.404 49.7035H242.05V48.6617C242.844 48.4407 243.363 48.146 243.618 47.7777C243.873 47.4094 244 46.757 244 45.8414V8.94648C244 8.03094 243.863 7.38902 243.598 7.01018C243.334 6.64186 242.824 6.34721 242.05 6.13674V5.0844H275.012C275.864 5.0844 276.462 4.9476 276.805 4.66347C277.148 4.37933 277.422 3.81107 277.628 2.95868H278.598V11.3984H277.628C277.442 10.5881 277.177 10.0409 276.825 9.75678C276.462 9.47265 275.864 9.33584 275.012 9.33584H248.772V24.6368H265.968C266.82 24.6368 267.428 24.4895 267.781 24.2054C268.133 23.9212 268.408 23.374 268.584 22.5427H269.564V30.9719H268.584C268.408 30.1511 268.133 29.5933 267.781 29.3092C267.428 29.0251 266.82 28.8777 265.968 28.8777H248.772Z" fill="#1C2120" fill-opacity="0.4"/>
<path d="M6.72172 6.37716V21.6045H24.741C25.5935 21.6045 26.201 21.4677 26.5537 21.1835C26.9065 20.8994 27.1808 20.3417 27.3572 19.5209H28.3371V27.9501H27.3572C27.1808 27.1187 26.9065 26.5715 26.5537 26.2874C26.201 26.0033 25.5935 25.8559 24.741 25.8559H6.72172V42.8827C6.72172 43.7983 6.8491 44.4507 7.10386 44.819C7.35862 45.1874 7.87794 45.482 8.67161 45.703V46.7448H0V45.703C0.774077 45.482 1.28359 45.1874 1.54815 44.819C1.81271 44.4507 1.94989 43.7983 1.94989 42.8827V5.9878C1.94989 5.07226 1.81271 4.41982 1.54815 4.04098C1.28359 3.66213 0.774077 3.36748 0 3.17806V2.12572H33.785C34.6375 2.12572 35.2352 1.98892 35.5879 1.70479C35.9504 1.42065 36.215 0.852392 36.4012 0H37.3712V8.43974H36.4012C36.215 7.6084 35.9504 7.06118 35.5879 6.78758C35.2352 6.51397 34.6375 6.37716 33.785 6.37716H6.72172Z" fill="#1C2120"/>
<path d="M51.1539 42.4935H77.6978C78.5503 42.4935 79.148 42.3566 79.5105 42.0725C79.8633 41.7884 80.1278 41.2306 80.314 40.3993H81.284V48.839H80.314C80.1278 48.0077 79.8633 47.45 79.5105 47.1658C79.148 46.8817 78.5503 46.7449 77.6978 46.7449H44.4321V45.7031C45.2258 45.4821 45.7451 45.1874 45.9999 44.8191C46.2546 44.4508 46.382 43.7983 46.382 42.8828V5.98787C46.382 5.07234 46.2448 4.43041 45.9803 4.05157C45.7157 3.68325 45.2062 3.3886 44.4321 3.17813V2.12579H53.1037V3.17813C52.3297 3.3886 51.8201 3.68325 51.5556 4.05157C51.291 4.43041 51.1539 5.07234 51.1539 5.98787V42.4935Z" fill="#1C2120"/>
<path d="M110.446 1.34702C117.765 1.34702 123.674 3.39907 128.152 7.52423C130.67 9.80781 132.561 12.607 133.815 15.9219C134.854 18.6474 135.373 21.5729 135.373 24.7089C135.373 28.9603 134.246 32.9382 131.993 36.6424C129.514 40.7465 126.074 43.6931 121.675 45.5031C118.382 46.8501 114.659 47.5341 110.505 47.5341C103.215 47.5341 97.3453 45.4715 92.8772 41.3464C90.3884 39.0417 88.4973 36.2425 87.2235 32.9487C86.1848 30.2442 85.6655 27.4029 85.6655 24.4248C85.6655 19.9944 86.7825 15.9219 89.0166 12.1966C91.4466 8.16616 94.8957 5.21962 99.3637 3.3675C102.489 2.08365 106.183 1.41015 110.446 1.34702ZM110.446 5.81945C104.214 5.81945 99.2853 7.69261 95.6501 11.4389C92.3285 14.8906 90.6627 19.2157 90.6627 24.4248C90.6627 29.6549 92.3285 33.9905 95.6501 37.4317C99.2658 41.178 104.214 43.0511 110.505 43.0511C116.815 43.0511 121.783 41.178 125.418 37.4317C128.72 33.9905 130.376 29.7391 130.376 24.6773C130.376 19.2157 128.72 14.7959 125.418 11.4389C123.429 9.43949 121.293 8.02936 119.029 7.22958C116.511 6.31405 113.65 5.84049 110.446 5.81945Z" fill="#1C2120"/>
<path d="M149.36 5.98787V30.6652C149.36 33.5802 149.507 35.6322 149.791 36.8214C150.075 38.0105 150.663 39.0418 151.555 39.9152C153.73 42.0094 157.777 43.0512 163.695 43.0512C170.152 43.0512 174.385 41.82 176.394 39.3575C177.06 38.5261 177.511 37.5475 177.727 36.4004C177.952 35.2534 178.07 33.3486 178.07 30.6652V5.98787C178.07 5.09338 177.932 4.45146 177.668 4.07262C177.403 3.69378 176.884 3.3886 176.12 3.17813V2.12579H184.36V3.17813C183.596 3.36755 183.077 3.66221 182.812 4.04105C182.547 4.41989 182.42 5.07234 182.42 5.98787V31.6754C182.42 34.8324 182.136 37.2423 181.568 38.905C180.509 41.862 178.53 44.0404 175.61 45.44C172.7 46.8291 168.673 47.5341 163.519 47.5341C155.808 47.5341 150.536 45.9241 147.694 42.725C146.538 41.4411 145.725 39.9784 145.274 38.3262C144.814 36.6845 144.588 34.4641 144.588 31.6754V5.98787C144.588 5.07234 144.451 4.41989 144.187 4.04105C143.932 3.66221 143.413 3.36755 142.638 3.17813V2.12579H151.31V3.17813C150.546 3.3886 150.026 3.69378 149.762 4.07262C149.497 4.45146 149.36 5.09338 149.36 5.98787Z" fill="#1C2120"/>
<path d="M231.66 4.87235L227.309 13.3016L226.457 12.8175C226.8 11.8388 226.966 11.2285 226.966 10.9864C226.966 10.334 226.222 9.62891 224.723 8.8607C220.637 6.80864 216.316 5.78788 211.75 5.78788C207.997 5.78788 204.734 6.54556 201.951 8.03988C200.618 8.78704 199.55 9.74467 198.776 10.9233C197.993 12.1019 197.601 13.3437 197.601 14.6486C197.601 15.7325 197.904 16.7638 198.512 17.7319C199.119 18.7001 199.923 19.4262 200.922 19.9102C202.01 20.4575 203.303 20.8258 204.802 21.0362C206.292 21.2467 208.722 21.4046 212.092 21.5098C216.757 21.6676 220.088 21.8992 222.106 22.2149C224.115 22.5306 225.761 23.0778 227.064 23.867C230.514 25.9296 232.238 29.0866 232.238 33.3065C232.238 37.3369 230.67 40.6413 227.545 43.2195C224.076 46.0924 219.304 47.5341 213.219 47.5341C209.702 47.5341 206.645 47.1447 204.019 46.3871C201.402 45.6188 198.277 44.2192 194.651 42.1672C193.632 41.6726 193.035 41.42 192.858 41.42C192.545 41.42 192.074 41.8094 191.428 42.5986L190.604 42.0409L195.171 33.8327L196.023 34.3588C195.631 35.2323 195.445 35.8216 195.445 36.1268C195.445 36.8213 196.738 37.8947 199.335 39.3574C201.667 40.6623 203.921 41.6094 206.076 42.1882C208.242 42.767 210.583 43.0511 213.121 43.0511C218.256 43.0511 222.155 41.841 224.811 39.4206C226.575 37.8105 227.456 35.8952 227.456 33.6748C227.456 30.7493 225.947 28.7394 222.92 27.6239C221.95 27.2556 220.94 27.0135 219.892 26.9188C218.853 26.8241 215.884 26.6768 210.995 26.4768C207.507 26.3295 204.773 26.0454 202.794 25.6244C200.814 25.214 199.051 24.5405 197.512 23.6039C196.072 22.7305 194.926 21.5098 194.083 19.9418C193.24 18.3738 192.819 16.6585 192.819 14.8064C192.819 11.6494 193.916 8.93437 196.111 6.67184C197.738 5.01967 199.972 3.71478 202.833 2.76767C205.694 1.82057 208.83 1.34702 212.239 1.34702C215.022 1.34702 217.599 1.64167 219.99 2.23098C222.371 2.80976 225.066 3.83053 228.064 5.26171C228.74 5.56689 229.152 5.72474 229.318 5.72474C229.681 5.72474 230.18 5.28276 230.807 4.41984L231.66 4.87235Z" fill="#1C2120"/>
<path d="M246.017 25.9191V42.4934H272.649C273.502 42.4934 274.109 42.3566 274.462 42.0724C274.815 41.7883 275.089 41.2306 275.265 40.3992H276.245V48.839H275.295C275.099 48.0076 274.815 47.4499 274.462 47.1658C274.109 46.8816 273.502 46.7448 272.649 46.7448H239.295V45.703C240.089 45.482 240.608 45.1874 240.863 44.819C241.118 44.4507 241.245 43.7983 241.245 42.8827V5.9878C241.245 5.07226 241.108 4.43034 240.844 4.0515C240.579 3.68318 240.069 3.38853 239.295 3.17806V2.12572H272.257C273.11 2.12572 273.708 1.98892 274.05 1.70479C274.393 1.42065 274.668 0.852392 274.874 0H275.844V8.43974H274.874C274.687 7.62945 274.423 7.08223 274.07 6.7981C273.707 6.51397 273.11 6.37716 272.257 6.37716H246.017V21.6781H263.213C264.066 21.6781 264.673 21.5308 265.026 21.2467C265.379 20.9626 265.653 20.4153 265.83 19.584H266.809V28.0132H265.83C265.653 27.1924 265.379 26.6347 265.026 26.3505C264.673 26.0664 264.066 25.9191 263.213 25.9191H246.017Z" fill="#1C2120"/>
<path d="M34.8137 89.592H39.0564V89.1395C38.0275 89.1395 37.8022 88.6028 37.8022 86.9927V72.9124H41.2218C42.7406 72.9124 43.2697 73.4176 43.593 75.617L43.985 75.5643L43.5637 72.239L43.5147 71.9232H30.3554L30.3064 72.239L29.8752 75.5643L30.277 75.617C30.6003 73.4176 31.149 72.9124 32.6482 72.9124H36.0581V86.9927C36.0581 88.6028 35.8327 89.1395 34.8137 89.1395V89.592Z" fill="#1C2120"/>
<path d="M45.7329 89.5919H49.9658V89.1394C48.9468 89.1394 48.7214 88.6027 48.7214 86.9927V84.7722C48.7214 81.1101 49.5739 76.9323 53.2581 76.9323C55.3256 76.9323 55.9233 78.5634 55.9233 80.9417V86.9927C55.9233 88.6027 55.7273 89.1394 54.6789 89.1394V89.5919H58.9216V89.1394C57.8928 89.1394 57.6674 88.6027 57.6674 86.9927V81.4574C57.6674 77.9741 56.472 75.9326 53.6598 75.9326C50.8379 75.9326 49.4661 77.7531 48.8684 80.0578H48.7214V72.0074C48.7214 70.5341 48.2021 70.3447 47.2811 70.3131H45.7329V70.7656C46.7519 70.7656 46.9773 71.3023 46.9773 72.9124V86.9927C46.9773 88.6027 46.7519 89.1394 45.7329 89.1394V89.5919Z" fill="#1C2120"/>
<path d="M67.1442 89.8551C70.603 89.8551 72.2295 87.2348 71.9748 84.6671L70.2307 85.2564C70.505 87.9293 68.6139 88.8659 66.9384 88.8659C64.577 88.8659 62.6761 86.8033 62.6565 83.4043V83.0044C66.2231 84.162 71.9062 83.8042 71.9062 79.658C71.9062 77.4691 70.2797 75.9327 67.3695 75.9327C63.7539 75.9327 60.9124 78.5319 60.9124 83.0886C60.9124 86.8349 62.7839 89.8551 67.1442 89.8551ZM62.7251 82.0152C63.0288 78.9318 64.577 76.9324 67.2421 76.9324C69.339 76.9324 70.1621 78.1321 70.1621 79.658C70.1621 81.91 67.5655 83.3832 62.7251 82.0152Z" fill="#1C2120"/>
<path d="M79.7554 89.592H83.9883V89.1395C82.9693 89.1395 82.7439 88.6028 82.7439 86.9927V80.5419H92.5129V86.9927C92.5129 88.6028 92.317 89.1395 91.2685 89.1395V89.592H95.5113V89.1395C94.4824 89.1395 94.2571 88.6028 94.2571 86.9927V74.5225C94.2571 72.9124 94.4824 72.3758 95.5113 72.3758V71.9232H91.2685V72.3758C92.317 72.3758 92.5129 72.9124 92.5129 74.5225V79.5527H82.7439V74.5225C82.7439 72.9124 82.9693 72.3758 83.9883 72.3758V71.9232H79.7554V72.3758C80.7744 72.3758 80.9998 72.9124 80.9998 74.5225V86.9927C80.9998 88.6028 80.7744 89.1395 79.7554 89.1395V89.592Z" fill="#1C2120"/>
<path d="M103.587 89.8551C107.721 89.8551 109.662 86.456 109.662 82.8991C109.662 79.3422 107.721 75.9327 103.587 75.9327C99.4222 75.9327 97.5017 79.3422 97.5017 82.8991C97.5017 86.456 99.4222 89.8551 103.587 89.8551ZM104.057 88.8449C101.137 89.0869 99.5398 86.7507 99.2458 83.2464C98.9911 79.7421 100.245 77.1955 103.106 76.9534C106.026 76.7114 107.623 79.0476 107.898 82.5519C108.172 86.0562 106.898 88.6028 104.057 88.8449Z" fill="#1C2120"/>
<path d="M116.94 89.8552C119.733 89.8552 121.105 88.0346 121.702 85.7405H121.849V88.0346C121.849 89.4027 122.378 89.5605 123.299 89.5921H124.848V89.1396C123.819 89.1396 123.593 88.6029 123.593 86.9928V78.8056C123.593 77.1956 123.819 76.6589 124.848 76.6589V76.2064H120.605V76.6589C121.653 76.6589 121.849 77.1956 121.849 78.8056V81.0261C121.849 84.6882 121.007 88.866 117.313 88.866C115.275 88.866 114.647 87.2349 114.647 84.8566V78.8056C114.647 77.1956 114.873 76.6589 115.892 76.6589V76.2064H111.659V76.6589C112.678 76.6589 112.903 77.1956 112.903 78.8056V84.3409C112.903 87.8242 114.099 89.8552 116.94 89.8552Z" fill="#1C2120"/>
<path d="M132.1 89.8551C134.765 89.8551 136.832 88.8975 136.832 86.1088C136.832 83.7305 134.814 82.7939 132.07 81.8573C130.003 81.1312 128.709 80.4893 128.709 79.016C128.709 77.8374 129.454 76.9324 131.522 76.9324C133.413 76.9324 135.363 77.7322 134.265 80.3525L136.009 80.8892C137.205 77.1113 134.363 75.9327 131.502 75.9327C128.807 75.9327 126.956 76.985 126.956 79.2581C126.956 81.3733 128.553 82.173 131.522 83.278C133.315 83.9199 135.088 84.3724 135.088 86.435C135.088 87.9293 134.138 88.8659 132.041 88.8659C129.699 88.8659 127.534 88.0135 128.533 84.6881L126.789 84.162C125.79 88.6765 128.827 89.8551 132.1 89.8551Z" fill="#1C2120"/>
<path d="M144.809 89.8551C148.268 89.8551 149.895 87.2348 149.64 84.6671L147.896 85.2564C148.17 87.9293 146.279 88.8659 144.604 88.8659C142.242 88.8659 140.341 86.8033 140.322 83.4043V83.0044C143.888 84.162 149.571 83.8042 149.571 79.658C149.571 77.4691 147.945 75.9327 145.035 75.9327C141.419 75.9327 138.578 78.5319 138.578 83.0886C138.578 86.8349 140.449 89.8551 144.809 89.8551ZM140.39 82.0152C140.694 78.9318 142.242 76.9324 144.907 76.9324C147.004 76.9324 147.827 78.1321 147.827 79.658C147.827 81.91 145.231 83.3832 140.39 82.0152Z" fill="#1C2120"/>
<path d="M163.506 89.8551C167.641 89.8551 169.581 86.456 169.581 82.8991C169.581 79.3422 167.641 75.9327 163.506 75.9327C159.341 75.9327 157.421 79.3422 157.421 82.8991C157.421 86.456 159.341 89.8551 163.506 89.8551ZM163.976 88.8449C161.056 89.0869 159.459 86.7507 159.165 83.2464C158.91 79.7421 160.164 77.1955 163.026 76.9534C165.946 76.7114 167.543 79.0476 167.817 82.5519C168.091 86.0562 166.818 88.6028 163.976 88.8449Z" fill="#1C2120"/>
<path d="M172.195 89.5922H176.438V89.1397C175.389 89.1397 175.193 88.603 175.193 86.9929V77.1957H178.133C179.054 77.1957 179.054 76.88 179.054 76.2065H175.193C175.193 73.3441 175.213 71.0395 177.31 71.0395C178.456 71.0395 179.024 72.2707 177.711 73.6598L179.456 74.1965C180.553 72.0813 179.701 70.0503 177.163 70.0503C174.968 70.0503 173.449 71.5236 173.449 75.0278V76.2065H171.578V77.1957H173.449V86.9929C173.449 88.603 173.224 89.1397 172.195 89.1397V89.5922Z" fill="#1C2120"/>
<path d="M186.957 89.592H191.19V89.1395C190.171 89.1395 189.946 88.6028 189.946 86.9927V81.9836H194.561C196.05 81.9836 196.55 82.2256 196.55 83.3306H196.981V79.6579H196.55C196.55 80.7524 196.05 80.9944 194.561 80.9944H189.946V72.9124H195.883C197.373 72.9124 197.951 73.5333 198.323 76.2904L198.745 76.2063L198.176 72.0811L198.147 71.9232H186.957V72.3758C187.976 72.3758 188.201 72.9124 188.201 74.5225V86.9927C188.201 88.6028 187.976 89.1395 186.957 89.1395V89.592Z" fill="#1C2120"/>
<path d="M200.74 89.5919H204.973V89.1394C203.954 89.1394 203.729 88.6027 203.729 86.9927V72.0074C203.729 70.5341 203.209 70.3447 202.288 70.3131H200.74V70.7656C201.759 70.7656 201.985 71.3023 201.985 72.9124V86.9927C201.985 88.6027 201.759 89.1394 200.74 89.1394V89.5919Z" fill="#1C2120"/>
<path d="M212.807 89.8551C216.942 89.8551 218.883 86.456 218.883 82.8991C218.883 79.3422 216.942 75.9327 212.807 75.9327C208.643 75.9327 206.723 79.3422 206.723 82.8991C206.723 86.456 208.643 89.8551 212.807 89.8551ZM213.278 88.8449C210.358 89.0869 208.761 86.7507 208.467 83.2464C208.212 79.7421 209.466 77.1955 212.327 76.9534C215.247 76.7114 216.844 79.0476 217.119 82.5519C217.393 86.0562 216.119 88.6028 213.278 88.8449Z" fill="#1C2120"/>
<path d="M220.879 89.592H225.112V89.1395C224.093 89.1395 223.868 88.6028 223.868 86.9927V84.7723C223.868 81.1102 225.514 76.9324 228.356 76.9324C230.129 76.9324 230.472 78.3425 229.355 81.2891L231.099 81.8258C232.442 77.8374 231.374 75.9327 228.826 75.9327C225.965 75.9327 224.515 78.3425 224.015 80.2473H223.868V77.7532C223.868 76.3957 223.349 76.2273 222.428 76.2063H220.879V76.6588C221.898 76.6588 222.124 77.1955 222.124 78.8056V86.9927C222.124 88.6028 221.898 89.1395 220.879 89.1395V89.592Z" fill="#1C2120"/>
<path d="M236.954 89.8551C239.227 89.8551 241.265 88.7607 242.265 86.8875H242.412V88.224C242.49 89.1395 243.058 89.592 243.832 89.592C244.411 89.592 245.028 89.3289 245.4 88.7396V88.2029C244.381 88.7396 244.156 88.3923 244.156 86.7823V82.5203C244.156 78.0479 243.039 75.9327 239.394 75.9327C235.484 75.9327 233.593 78.5846 234.338 81.5311L236.004 80.9208C235.259 78.774 236.778 76.9324 239.168 76.9324C241.667 76.9324 242.235 78.4267 242.363 81.1102C238.698 81.7521 233.417 82.6887 233.417 86.5402C233.417 88.8133 234.887 89.8551 236.954 89.8551ZM237.454 88.8659C235.808 88.8659 235.161 87.9609 235.161 86.456C235.161 83.8042 238.796 82.5729 242.412 82.0678V83.8357C242.412 86.9927 239.747 88.8659 237.454 88.8659Z" fill="#1C2120"/>
</svg>
