<svg width="178" height="33" viewBox="0 0 178 33" fill="none" xmlns="http://www.w3.org/2000/svg">
<path d="M6.03764 5.94777V15.649H17.5176C18.0607 15.649 18.4478 15.5618 18.6725 15.3808C18.8972 15.1998 19.072 14.8445 19.1844 14.3215H19.8086V19.6917H19.1844C19.072 19.1621 18.8972 18.8135 18.6725 18.6324C18.4478 18.4514 18.0607 18.3576 17.5176 18.3576H6.03764V29.2052C6.03764 29.7885 6.11879 30.2042 6.2811 30.4388C6.4434 30.6735 6.77426 30.8612 7.2799 31.002V31.6657H1.75527V31.002C2.24843 30.8612 2.57304 30.6735 2.74159 30.4388C2.91014 30.2042 2.99753 29.7885 2.99753 29.2052V5.69971C2.99753 5.11643 2.91014 4.70076 2.74159 4.4594C2.57304 4.21804 2.24843 4.03032 1.75527 3.90964V3.2392H23.2795C23.8226 3.2392 24.2034 3.15205 24.4281 2.97103C24.6591 2.79001 24.8276 2.42797 24.9462 1.88492H25.5642V7.26183H24.9462C24.8276 6.73218 24.6591 6.38355 24.4281 6.20924C24.2034 6.03492 23.8226 5.94777 23.2795 5.94777H6.03764Z" fill="#1C2120" fill-opacity="0.4"/>
<path d="M34.3449 28.9573H51.2559C51.799 28.9573 52.1798 28.8701 52.4108 28.6891C52.6355 28.5081 52.804 28.1528 52.9226 27.6231H53.5407V33H52.9226C52.804 32.4704 52.6355 32.1151 52.4108 31.934C52.1798 31.753 51.799 31.6659 51.2559 31.6659H30.0625V31.0021C30.5682 30.8613 30.899 30.6736 31.0613 30.439C31.2237 30.2043 31.3048 29.7886 31.3048 29.2054V5.69982C31.3048 5.11654 31.2174 4.70758 31.0489 4.46622C30.8803 4.23157 30.5557 4.04384 30.0625 3.90976V3.23932H35.5872V3.90976C35.094 4.04384 34.7694 4.23157 34.6009 4.46622C34.4323 4.70758 34.3449 5.11654 34.3449 5.69982V28.9573Z" fill="#1C2120" fill-opacity="0.4"/>
<path d="M72.1191 2.74307C76.7822 2.74307 80.5465 4.05043 83.3993 6.67854C85.0036 8.13339 86.2085 9.91675 87.0075 12.0286C87.6692 13.7651 88.0001 15.6289 88.0001 17.6268C88.0001 20.3353 87.2822 22.8696 85.8464 25.2295C84.267 27.8442 82.0759 29.7215 79.273 30.8746C77.1755 31.7328 74.8034 32.1686 72.1565 32.1686C67.5121 32.1686 63.7728 30.8545 60.9263 28.2264C59.3406 26.7581 58.1358 24.9748 57.3243 22.8763C56.6626 21.1533 56.3318 19.3431 56.3318 17.4458C56.3318 14.6232 57.0434 12.0286 58.4667 9.65528C60.0148 7.08751 62.2122 5.21028 65.0588 4.03031C67.0502 3.21238 69.4036 2.7833 72.1191 2.74307ZM72.1191 5.59243C68.1488 5.59243 65.0089 6.78581 62.6929 9.17257C60.5767 11.3716 59.5154 14.1271 59.5154 17.4458C59.5154 20.7778 60.5767 23.54 62.6929 25.7324C64.9964 28.1191 68.1488 29.3125 72.1565 29.3125C76.1767 29.3125 79.3417 28.1191 81.6577 25.7324C83.7614 23.54 84.8164 20.8315 84.8164 17.6067C84.8164 14.1271 83.7614 11.3113 81.6577 9.17257C80.3904 7.89874 79.0296 7.00035 77.5875 6.49082C75.9832 5.90754 74.1604 5.60584 72.1191 5.59243Z" fill="#1C2120" fill-opacity="0.4"/>
<path d="M96.9117 5.69982V21.4216C96.9117 23.2787 97.0053 24.586 97.1864 25.3436C97.3674 26.1012 97.742 26.7583 98.31 27.3147C99.6959 28.6489 102.274 29.3126 106.045 29.3126C110.158 29.3126 112.855 28.5282 114.135 26.9594C114.559 26.4297 114.846 25.8062 114.984 25.0755C115.127 24.3447 115.202 23.1312 115.202 21.4216V5.69982C115.202 5.12995 115.115 4.72099 114.946 4.47963C114.778 4.23827 114.447 4.04384 113.96 3.90976V3.23932H119.21V3.90976C118.723 4.03044 118.392 4.21816 118.224 4.45952C118.055 4.70087 117.974 5.11654 117.974 5.69982V22.0652C117.974 24.0765 117.793 25.6118 117.431 26.6711C116.757 28.555 115.496 29.9428 113.635 30.8345C111.781 31.7195 109.216 32.1687 105.932 32.1687C101.019 32.1687 97.6608 31.1429 95.8505 29.1048C95.1139 28.2869 94.5957 27.3549 94.3086 26.3024C94.0152 25.2565 93.8716 23.8419 93.8716 22.0652V5.69982C93.8716 5.11654 93.7842 4.70087 93.6157 4.45952C93.4533 4.21816 93.1225 4.03044 92.6293 3.90976V3.23932H98.154V3.90976C97.667 4.04384 97.3362 4.23827 97.1676 4.47963C96.9991 4.72099 96.9117 5.12995 96.9117 5.69982Z" fill="#1C2120" fill-opacity="0.4"/>
<path d="M149.344 4.98904L146.572 10.3592L146.029 10.0508C146.248 9.42733 146.354 9.03848 146.354 8.88428C146.354 8.46861 145.879 8.01941 144.924 7.52999C142.321 6.22264 139.568 5.57232 136.659 5.57232C134.268 5.57232 132.19 6.05503 130.417 7.00705C129.568 7.48306 128.887 8.09316 128.394 8.84405C127.895 9.59494 127.645 10.3861 127.645 11.2174C127.645 11.908 127.839 12.565 128.226 13.1818C128.613 13.7986 129.125 14.2612 129.761 14.5696C130.454 14.9182 131.278 15.1529 132.233 15.287C133.182 15.421 134.73 15.5216 136.878 15.5886C139.849 15.6892 141.972 15.8367 143.258 16.0378C144.537 16.239 145.586 16.5876 146.416 17.0904C148.614 18.4045 149.712 20.4158 149.712 23.1043C149.712 25.672 148.714 27.7772 146.722 29.4198C144.512 31.2501 141.472 32.1686 137.596 32.1686C135.355 32.1686 133.407 31.9205 131.734 31.4378C130.067 30.9484 128.076 30.0567 125.766 28.7493C125.117 28.4342 124.736 28.2733 124.624 28.2733C124.424 28.2733 124.124 28.5214 123.712 29.0242L123.188 28.6689L126.097 23.4395L126.64 23.7747C126.39 24.3312 126.272 24.7066 126.272 24.901C126.272 25.3435 127.096 26.0274 128.75 26.9593C130.236 27.7906 131.671 28.394 133.045 28.7627C134.424 29.1315 135.916 29.3125 137.533 29.3125C140.804 29.3125 143.289 28.5415 144.981 26.9995C146.104 25.9737 146.666 24.7535 146.666 23.3389C146.666 21.4751 145.705 20.1946 143.776 19.4839C143.158 19.2492 142.515 19.095 141.847 19.0347C141.185 18.9744 139.294 18.8805 136.179 18.7531C133.956 18.6593 132.215 18.4782 130.954 18.2101C129.693 17.9486 128.569 17.5195 127.589 16.9228C126.671 16.3664 125.941 15.5887 125.404 14.5897C124.867 13.5907 124.599 12.4979 124.599 11.318C124.599 9.30665 125.298 7.57693 126.696 6.13549C127.732 5.0829 129.156 4.25156 130.979 3.64816C132.801 3.04477 134.799 2.74307 136.971 2.74307C138.744 2.74307 140.386 2.93079 141.909 3.30624C143.426 3.67498 145.143 4.3253 147.053 5.2371C147.484 5.43153 147.746 5.53209 147.852 5.53209C148.083 5.53209 148.401 5.25051 148.801 4.70075L149.344 4.98904Z" fill="#1C2120" fill-opacity="0.4"/>
<path d="M158.491 18.3978V28.9572H175.458C176.001 28.9572 176.388 28.87 176.613 28.689C176.838 28.508 177.012 28.1527 177.125 27.623H177.749V32.9999H177.143C177.019 32.4703 176.838 32.1149 176.613 31.9339C176.388 31.7529 176.001 31.6657 175.458 31.6657H154.208V31.002C154.714 30.8612 155.045 30.6735 155.207 30.4388C155.369 30.2042 155.451 29.7885 155.451 29.2052V5.69971C155.451 5.11643 155.363 4.70746 155.195 4.4661C155.026 4.23145 154.702 4.04373 154.208 3.90964V3.2392H175.208C175.751 3.2392 176.132 3.15205 176.351 2.97103C176.569 2.79001 176.744 2.42797 176.875 1.88492H177.493V7.26183H176.875C176.756 6.74559 176.588 6.39696 176.363 6.21594C176.132 6.03492 175.751 5.94777 175.208 5.94777H158.491V15.6959H169.446C169.989 15.6959 170.376 15.6021 170.601 15.421C170.826 15.24 171.001 14.8914 171.113 14.3618H171.737V19.732H171.113C171.001 19.209 170.826 18.8537 170.601 18.6727C170.376 18.4917 169.989 18.3978 169.446 18.3978H158.491Z" fill="#1C2120" fill-opacity="0.4"/>
<path d="M4.28237 4.06285V13.7641H15.7624C16.3055 13.7641 16.6925 13.6769 16.9172 13.4959C17.142 13.3149 17.3167 12.9596 17.4291 12.4366H18.0534V17.8068H17.4291C17.3167 17.2772 17.142 16.9285 16.9172 16.7475C16.6925 16.5665 16.3055 16.4726 15.7624 16.4726H4.28237V27.3203C4.28237 27.9036 4.36352 28.3193 4.52583 28.5539C4.68813 28.7886 5.01899 28.9763 5.52463 29.1171V29.7808H0V29.1171C0.493159 28.9763 0.81777 28.7886 0.986319 28.5539C1.15487 28.3193 1.24226 27.9036 1.24226 27.3203V3.81479C1.24226 3.23151 1.15487 2.81584 0.986319 2.57448C0.81777 2.33312 0.493159 2.1454 0 2.02472V1.35428H21.5242C22.0673 1.35428 22.4481 1.26713 22.6728 1.08611C22.9038 0.90509 23.0723 0.543054 23.191 0H23.809V5.37691H23.191C23.0723 4.84726 22.9038 4.49863 22.6728 4.32432C22.4481 4.15001 22.0673 4.06285 21.5242 4.06285H4.28237Z" fill="#1C2120"/>
<path d="M32.5897 27.0723H49.5006C50.0437 27.0723 50.4245 26.9851 50.6555 26.8041C50.8802 26.6231 51.0488 26.2678 51.1674 25.7381H51.7854V31.115H51.1674C51.0488 30.5854 50.8802 30.2301 50.6555 30.049C50.4245 29.868 50.0437 29.7809 49.5006 29.7809H28.3073V29.1171C28.8129 28.9763 29.1438 28.7886 29.3061 28.554C29.4684 28.3193 29.5495 27.9036 29.5495 27.3204V3.81481C29.5495 3.23153 29.4621 2.82257 29.2936 2.58121C29.1251 2.34656 28.8004 2.15883 28.3073 2.02475V1.35431H33.8319V2.02475C33.3388 2.15883 33.0141 2.34656 32.8456 2.58121C32.677 2.82257 32.5897 3.23153 32.5897 3.81481V27.0723Z" fill="#1C2120"/>
<path d="M70.3641 0.858246C75.0272 0.858246 78.7915 2.1656 81.6443 4.79371C83.2486 6.24856 84.4534 8.03192 85.2525 10.1438C85.9142 11.8802 86.245 13.7441 86.245 15.742C86.245 18.4505 85.5272 20.9848 84.0914 23.3447C82.512 25.9594 80.3209 27.8366 77.518 28.9898C75.4205 29.848 73.0484 30.2837 70.4015 30.2837C65.7571 30.2837 62.0178 28.9697 59.1712 26.3416C57.5856 24.8733 56.3808 23.0899 55.5693 20.9915C54.9076 19.2685 54.5768 17.4583 54.5768 15.5609C54.5768 12.7384 55.2884 10.1438 56.7117 7.77045C58.2598 5.20268 60.4572 3.32546 63.3038 2.14549C65.2952 1.32755 67.6486 0.898471 70.3641 0.858246ZM70.3641 3.7076C66.3938 3.7076 63.2539 4.90098 60.9379 7.28774C58.8217 9.48677 57.7604 12.2423 57.7604 15.5609C57.7604 18.893 58.8217 21.6552 60.9379 23.8475C63.2414 26.2343 66.3938 27.4277 70.4015 27.4277C74.4217 27.4277 77.5867 26.2343 79.9027 23.8475C82.0064 21.6552 83.0614 18.9466 83.0614 15.7218C83.0614 12.2423 82.0064 9.42644 79.9027 7.28774C78.6354 6.01391 77.2745 5.11552 75.8325 4.60599C74.2282 4.02271 72.4054 3.72101 70.3641 3.7076Z" fill="#1C2120"/>
<path d="M95.1564 3.81481V19.5366C95.1564 21.3937 95.2501 22.701 95.4311 23.4586C95.6121 24.2162 95.9867 24.8733 96.5548 25.4297C97.9406 26.7639 100.519 27.4276 104.289 27.4276C108.403 27.4276 111.1 26.6432 112.38 25.0744C112.804 24.5447 113.091 23.9212 113.229 23.1905C113.372 22.4597 113.447 21.2462 113.447 19.5366V3.81481C113.447 3.24494 113.36 2.83598 113.191 2.59462C113.023 2.35326 112.692 2.15883 112.205 2.02475V1.35431H117.455V2.02475C116.968 2.14543 116.637 2.33315 116.468 2.57451C116.3 2.81586 116.219 3.23153 116.219 3.81481V20.1802C116.219 22.1915 116.038 23.7268 115.676 24.7861C115.001 26.67 113.74 28.0578 111.88 28.9495C110.026 29.8345 107.46 30.2837 104.177 30.2837C99.264 30.2837 95.9055 29.2579 94.0952 27.2198C93.3586 26.4018 92.8405 25.4699 92.5533 24.4174C92.2599 23.3715 92.1163 21.9569 92.1163 20.1802V3.81481C92.1163 3.23153 92.0289 2.81586 91.8604 2.57451C91.6981 2.33315 91.3672 2.14543 90.8741 2.02475V1.35431H96.3987V2.02475C95.9118 2.15883 95.5809 2.35326 95.4124 2.59462C95.2438 2.83598 95.1564 3.24494 95.1564 3.81481Z" fill="#1C2120"/>
<path d="M147.589 3.10421L144.817 8.47442L144.274 8.16601C144.493 7.54251 144.599 7.15365 144.599 6.99945C144.599 6.58378 144.124 6.13459 143.169 5.64517C140.566 4.33782 137.813 3.68749 134.904 3.68749C132.513 3.68749 130.435 4.17021 128.662 5.12223C127.813 5.59824 127.132 6.20834 126.639 6.95923C126.14 7.71012 125.89 8.50123 125.89 9.33257C125.89 10.0231 126.084 10.6802 126.471 11.297C126.858 11.9138 127.37 12.3764 128.006 12.6848C128.699 13.0334 129.523 13.268 130.478 13.4021C131.427 13.5362 132.975 13.6368 135.123 13.7038C138.094 13.8044 140.217 13.9519 141.503 14.153C142.782 14.3541 143.831 14.7028 144.661 15.2056C146.859 16.5197 147.957 18.531 147.957 21.2194C147.957 23.7872 146.959 25.8924 144.967 27.5349C142.757 29.3652 139.717 30.2837 135.841 30.2837C133.6 30.2837 131.652 30.0357 129.979 29.553C128.312 29.0635 126.321 28.1719 124.011 26.8645C123.362 26.5494 122.981 26.3885 122.869 26.3885C122.669 26.3885 122.369 26.6366 121.957 27.1394L121.433 26.7841L124.342 21.5546L124.885 21.8899C124.635 22.4463 124.517 22.8218 124.517 23.0162C124.517 23.4587 125.341 24.1425 126.995 25.0744C128.481 25.9058 129.916 26.5092 131.29 26.8779C132.669 27.2467 134.161 27.4277 135.778 27.4277C139.049 27.4277 141.534 26.6567 143.226 25.1147C144.349 24.0889 144.911 22.8687 144.911 21.4541C144.911 19.5903 143.95 18.3097 142.021 17.5991C141.403 17.3644 140.76 17.2102 140.092 17.1499C139.43 17.0895 137.539 16.9957 134.424 16.8683C132.201 16.7744 130.46 16.5934 129.199 16.3252C127.938 16.0638 126.814 15.6347 125.834 15.038C124.916 14.4815 124.186 13.7038 123.649 12.7049C123.112 11.7059 122.844 10.6131 122.844 9.43314C122.844 7.42183 123.543 5.6921 124.941 4.25066C125.977 3.19807 127.401 2.36673 129.224 1.76334C131.046 1.15994 133.044 0.858246 135.216 0.858246C136.989 0.858246 138.631 1.04597 140.154 1.42141C141.671 1.79015 143.388 2.44048 145.298 3.35227C145.729 3.5467 145.991 3.64727 146.097 3.64727C146.328 3.64727 146.646 3.36568 147.046 2.81592L147.589 3.10421Z" fill="#1C2120"/>
<path d="M156.736 16.5129V27.0723H173.703C174.246 27.0723 174.633 26.9851 174.858 26.8041C175.083 26.6231 175.257 26.2677 175.37 25.7381H175.994V31.115H175.388C175.264 30.5854 175.083 30.23 174.858 30.049C174.633 29.868 174.246 29.7808 173.703 29.7808H152.453V29.1171C152.959 28.9763 153.29 28.7886 153.452 28.5539C153.614 28.3193 153.696 27.9036 153.696 27.3203V3.81479C153.696 3.23151 153.608 2.82254 153.44 2.58118C153.271 2.34653 152.947 2.15881 152.453 2.02472V1.35428H173.453C173.996 1.35428 174.377 1.26713 174.596 1.08611C174.814 0.90509 174.989 0.543054 175.12 0H175.738V5.37691H175.12C175.001 4.86067 174.833 4.51204 174.608 4.33103C174.377 4.15001 173.996 4.06285 173.453 4.06285H156.736V13.811H167.691C168.234 13.811 168.621 13.7171 168.846 13.5361C169.071 13.3551 169.246 13.0065 169.358 12.4768H169.982V17.847H169.358C169.246 17.3241 169.071 16.9688 168.846 16.7878C168.621 16.6067 168.234 16.5129 167.691 16.5129H156.736Z" fill="#1C2120"/>
</svg>
